<?xml version="1.0" encoding="UTF-8"?>
<!DOCTYPE svg PUBLIC "-//W3C//DTD SVG 1.1//EN" "http://www.w3.org/Graphics/SVG/1.1/DTD/svg11.dtd">
<!-- Creator: CorelDRAW 2021 (64 Bit) -->
<svg xmlns="http://www.w3.org/2000/svg" xml:space="preserve" width="419.674mm" height="419.674mm" version="1.1" style="shape-rendering:geometricPrecision; text-rendering:geometricPrecision; image-rendering:optimizeQuality; fill-rule:evenodd; clip-rule:evenodd"
viewBox="0 0 5588.91 5588.91"
 xmlns:xlink="http://www.w3.org/1999/xlink"
 xmlns:xodm="http://www.corel.com/coreldraw/odm/2003">
 <defs>
  <style type="text/css">
   <![CDATA[
    .str0 {stroke:#373435;stroke-width:18.79;stroke-miterlimit:22.9256}
    .fil0 {fill:none}
   ]]>
  </style>
 </defs>
 <g id="Camada_x0020_1">
  <metadata id="CorelCorpID_0Corel-Layer"/>
  <g id="_2459536720064">
   <g>
    <path class="fil0 str0" d="M96.35 3693.83c0,-1242.07 1006.9,-2248.97 2248.97,-2248.97"/>
    <path class="fil0 str0" d="M2345.32 1444.85c621.04,0 1124.49,503.45 1124.49,1124.49"/>
    <path class="fil0 str0" d="M3469.8 2569.34c0,310.52 -251.73,562.24 -562.24,562.24"/>
    <path class="fil0 str0" d="M2907.56 3131.58c-155.26,0 -281.12,-125.86 -281.12,-281.12"/>
    <path class="fil0 str0" d="M2626.44 2850.46c0,-77.63 62.93,-140.56 140.56,-140.56"/>
    <path class="fil0 str0" d="M2767 2709.9c38.81,0 70.28,31.47 70.28,70.28"/>
    <path class="fil0 str0" d="M2837.28 2780.18c0,19.41 -15.73,35.14 -35.14,35.14"/>
    <path class="fil0 str0" d="M2802.14 2815.32c-9.7,0 -17.57,-7.87 -17.57,-17.57"/>
    <path class="fil0 str0" d="M2784.57 2797.75c0,-4.85 3.93,-8.79 8.79,-8.79"/>
    <path class="fil0 str0" d="M2793.36 2788.96c2.43,0 4.39,1.97 4.39,4.39"/>
    <path class="fil0 str0" d="M2797.75 2793.36c0,1.21 -0.98,2.2 -2.2,2.2"/>
    <path class="fil0 str0" d="M2795.55 2795.55c-0.61,0 -1.1,-0.49 -1.1,-1.1"/>
   </g>
   <g>
    <path class="fil0 str0" d="M8.14 2224.28c621.03,-1075.66 1996.49,-1444.22 3072.15,-823.18"/>
    <path class="fil0 str0" d="M3080.29 1401.1c537.83,310.52 722.11,998.24 411.59,1536.08"/>
    <path class="fil0 str0" d="M3491.88 2937.17c-155.26,268.92 -499.12,361.05 -768.04,205.8"/>
    <path class="fil0 str0" d="M2723.84 3142.97c-134.46,-77.63 -180.53,-249.56 -102.9,-384.02"/>
    <path class="fil0 str0" d="M2620.95 2758.95c38.81,-67.23 124.78,-90.26 192.01,-51.45"/>
    <path class="fil0 str0" d="M2812.96 2707.5c33.61,19.41 45.13,62.39 25.72,96.01"/>
    <path class="fil0 str0" d="M2838.68 2803.51c-9.7,16.81 -31.19,22.57 -48,12.86"/>
    <path class="fil0 str0" d="M2790.68 2816.37c-8.4,-4.85 -11.28,-15.6 -6.43,-24"/>
    <path class="fil0 str0" d="M2784.25 2792.37c2.43,-4.2 7.8,-5.64 12,-3.22"/>
    <path class="fil0 str0" d="M2796.25 2789.15c2.1,1.21 2.82,3.9 1.61,6"/>
    <path class="fil0 str0" d="M2797.86 2795.15c-0.61,1.05 -1.95,1.41 -3,0.8"/>
    <path class="fil0 str0" d="M2794.86 2795.95c-0.53,-0.3 -0.71,-0.97 -0.4,-1.5"/>
   </g>
   <g>
    <path class="fil0 str0" d="M666.52 907.51c1075.66,-621.04 2451.12,-252.48 3072.15,823.18"/>
    <path class="fil0 str0" d="M3738.67 1730.69c310.52,537.83 126.24,1225.56 -411.59,1536.08"/>
    <path class="fil0 str0" d="M3327.08 3266.77c-268.92,155.26 -612.78,63.12 -768.04,-205.8"/>
    <path class="fil0 str0" d="M2559.05 3060.97c-77.63,-134.46 -31.56,-306.39 102.9,-384.02"/>
    <path class="fil0 str0" d="M2661.94 2676.95c67.23,-38.82 153.2,-15.78 192.01,51.45"/>
    <path class="fil0 str0" d="M2853.95 2728.4c19.41,33.61 7.89,76.6 -25.72,96"/>
    <path class="fil0 str0" d="M2828.23 2824.41c-16.81,9.7 -38.3,3.95 -48,-12.86"/>
    <path class="fil0 str0" d="M2780.23 2811.54c-4.85,-8.4 -1.97,-19.15 6.43,-24"/>
    <path class="fil0 str0" d="M2786.66 2787.54c4.2,-2.43 9.58,-0.99 12,3.21"/>
    <path class="fil0 str0" d="M2798.66 2790.76c1.21,2.1 0.49,4.79 -1.61,6"/>
    <path class="fil0 str0" d="M2797.05 2796.76c-1.05,0.61 -2.39,0.25 -3,-0.8"/>
    <path class="fil0 str0" d="M2794.05 2795.95c-0.3,-0.53 -0.12,-1.2 0.4,-1.5"/>
   </g>
   <g>
    <path class="fil0 str0" d="M1895.08 96.35c1242.07,0 2248.97,1006.9 2248.97,2248.97"/>
    <path class="fil0 str0" d="M4144.05 2345.32c0,621.04 -503.45,1124.49 -1124.49,1124.49"/>
    <path class="fil0 str0" d="M3019.57 3469.8c-310.52,0 -562.24,-251.73 -562.24,-562.24"/>
    <path class="fil0 str0" d="M2457.32 2907.56c0,-155.26 125.86,-281.12 281.12,-281.12"/>
    <path class="fil0 str0" d="M2738.45 2626.44c77.63,0 140.56,62.93 140.56,140.56"/>
    <path class="fil0 str0" d="M2879.01 2767c0,38.81 -31.47,70.28 -70.28,70.28"/>
    <path class="fil0 str0" d="M2808.73 2837.28c-19.41,0 -35.14,-15.73 -35.14,-35.14"/>
    <path class="fil0 str0" d="M2773.59 2802.14c0,-9.7 7.87,-17.57 17.57,-17.57"/>
    <path class="fil0 str0" d="M2791.16 2784.57c4.85,0 8.79,3.93 8.79,8.79"/>
    <path class="fil0 str0" d="M2799.94 2793.36c0,2.43 -1.97,4.39 -4.39,4.39"/>
    <path class="fil0 str0" d="M2795.55 2797.75c-1.21,0 -2.2,-0.98 -2.2,-2.2"/>
    <path class="fil0 str0" d="M2793.35 2795.55c0,-0.61 0.49,-1.1 1.1,-1.1"/>
   </g>
   <g>
    <path class="fil0 str0" d="M3364.63 8.14c1075.66,621.03 1444.22,1996.49 823.18,3072.15"/>
    <path class="fil0 str0" d="M4187.81 3080.29c-310.52,537.83 -998.24,722.11 -1536.08,411.59"/>
    <path class="fil0 str0" d="M2651.73 3491.88c-268.92,-155.26 -361.05,-499.12 -205.8,-768.04"/>
    <path class="fil0 str0" d="M2445.94 2723.84c77.63,-134.46 249.56,-180.53 384.02,-102.9"/>
    <path class="fil0 str0" d="M2829.96 2620.95c67.23,38.81 90.26,124.78 51.45,192.01"/>
    <path class="fil0 str0" d="M2881.41 2812.96c-19.41,33.61 -62.39,45.13 -96.01,25.72"/>
    <path class="fil0 str0" d="M2785.4 2838.68c-16.81,-9.7 -22.57,-31.19 -12.86,-48"/>
    <path class="fil0 str0" d="M2772.54 2790.68c4.85,-8.4 15.6,-11.28 24,-6.43"/>
    <path class="fil0 str0" d="M2796.54 2784.25c4.2,2.43 5.64,7.8 3.22,12"/>
    <path class="fil0 str0" d="M2799.76 2796.25c-1.21,2.1 -3.9,2.82 -6,1.61"/>
    <path class="fil0 str0" d="M2793.76 2797.86c-1.05,-0.61 -1.41,-1.95 -0.8,-3"/>
    <path class="fil0 str0" d="M2792.95 2794.86c0.3,-0.53 0.97,-0.71 1.5,-0.4"/>
   </g>
   <g>
    <path class="fil0 str0" d="M4681.4 666.52c621.04,1075.66 252.48,2451.12 -823.18,3072.15"/>
    <path class="fil0 str0" d="M3858.22 3738.67c-537.83,310.52 -1225.56,126.24 -1536.08,-411.59"/>
    <path class="fil0 str0" d="M2322.14 3327.08c-155.26,-268.92 -63.12,-612.78 205.8,-768.04"/>
    <path class="fil0 str0" d="M2527.93 2559.05c134.46,-77.63 306.39,-31.56 384.02,102.9"/>
    <path class="fil0 str0" d="M2911.95 2661.94c38.82,67.23 15.78,153.2 -51.45,192.01"/>
    <path class="fil0 str0" d="M2860.5 2853.95c-33.61,19.41 -76.6,7.89 -96,-25.72"/>
    <path class="fil0 str0" d="M2764.5 2828.23c-9.7,-16.81 -3.95,-38.3 12.86,-48"/>
    <path class="fil0 str0" d="M2777.36 2780.23c8.4,-4.85 19.15,-1.97 24,6.43"/>
    <path class="fil0 str0" d="M2801.36 2786.66c2.43,4.2 0.99,9.58 -3.21,12"/>
    <path class="fil0 str0" d="M2798.15 2798.66c-2.1,1.21 -4.79,0.49 -6,-1.61"/>
    <path class="fil0 str0" d="M2792.15 2797.05c-0.61,-1.05 -0.25,-2.39 0.8,-3"/>
    <path class="fil0 str0" d="M2792.95 2794.05c0.53,-0.3 1.2,-0.12 1.5,0.4"/>
   </g>
   <g>
    <path class="fil0 str0" d="M5492.56 1895.08c0,1242.07 -1006.9,2248.97 -2248.97,2248.97"/>
    <path class="fil0 str0" d="M3243.59 4144.05c-621.04,0 -1124.49,-503.45 -1124.49,-1124.49"/>
    <path class="fil0 str0" d="M2119.1 3019.57c0,-310.52 251.73,-562.24 562.24,-562.24"/>
    <path class="fil0 str0" d="M2681.34 2457.32c155.26,0 281.12,125.86 281.12,281.12"/>
    <path class="fil0 str0" d="M2962.47 2738.45c0,77.63 -62.93,140.56 -140.56,140.56"/>
    <path class="fil0 str0" d="M2821.91 2879.01c-38.81,0 -70.28,-31.47 -70.28,-70.28"/>
    <path class="fil0 str0" d="M2751.63 2808.73c0,-19.41 15.73,-35.14 35.14,-35.14"/>
    <path class="fil0 str0" d="M2786.77 2773.59c9.7,0 17.57,7.87 17.57,17.57"/>
    <path class="fil0 str0" d="M2804.34 2791.16c0,4.85 -3.93,8.79 -8.79,8.79"/>
    <path class="fil0 str0" d="M2795.55 2799.94c-2.43,0 -4.39,-1.97 -4.39,-4.39"/>
    <path class="fil0 str0" d="M2791.16 2795.55c0,-1.21 0.98,-2.2 2.2,-2.2"/>
    <path class="fil0 str0" d="M2793.35 2793.35c0.61,0 1.1,0.49 1.1,1.1"/>
   </g>
   <g>
    <path class="fil0 str0" d="M5580.77 3364.63c-621.03,1075.66 -1996.49,1444.22 -3072.15,823.18"/>
    <path class="fil0 str0" d="M2508.62 4187.81c-537.83,-310.52 -722.11,-998.24 -411.59,-1536.08"/>
    <path class="fil0 str0" d="M2097.02 2651.73c155.26,-268.92 499.12,-361.05 768.04,-205.8"/>
    <path class="fil0 str0" d="M2865.06 2445.94c134.46,77.63 180.53,249.56 102.9,384.02"/>
    <path class="fil0 str0" d="M2967.96 2829.96c-38.81,67.23 -124.78,90.26 -192.01,51.45"/>
    <path class="fil0 str0" d="M2775.95 2881.41c-33.61,-19.41 -45.13,-62.39 -25.72,-96.01"/>
    <path class="fil0 str0" d="M2750.23 2785.4c9.7,-16.81 31.19,-22.57 48,-12.86"/>
    <path class="fil0 str0" d="M2798.23 2772.54c8.4,4.85 11.28,15.6 6.43,24"/>
    <path class="fil0 str0" d="M2804.66 2796.54c-2.43,4.2 -7.8,5.64 -12,3.22"/>
    <path class="fil0 str0" d="M2792.66 2799.76c-2.1,-1.21 -2.82,-3.9 -1.61,-6"/>
    <path class="fil0 str0" d="M2791.05 2793.76c0.61,-1.05 1.95,-1.41 3,-0.8"/>
    <path class="fil0 str0" d="M2794.05 2792.95c0.53,0.3 0.71,0.97 0.4,1.5"/>
   </g>
   <g>
    <path class="fil0 str0" d="M4922.39 4681.4c-1075.66,621.04 -2451.12,252.48 -3072.15,-823.18"/>
    <path class="fil0 str0" d="M1850.23 3858.22c-310.52,-537.83 -126.24,-1225.56 411.59,-1536.08"/>
    <path class="fil0 str0" d="M2261.82 2322.14c268.92,-155.26 612.78,-63.12 768.04,205.8"/>
    <path class="fil0 str0" d="M3029.86 2527.93c77.63,134.46 31.56,306.39 -102.9,384.02"/>
    <path class="fil0 str0" d="M2926.96 2911.95c-67.23,38.82 -153.2,15.78 -192.01,-51.45"/>
    <path class="fil0 str0" d="M2734.95 2860.5c-19.41,-33.61 -7.89,-76.6 25.72,-96"/>
    <path class="fil0 str0" d="M2760.68 2764.5c16.81,-9.7 38.3,-3.95 48,12.86"/>
    <path class="fil0 str0" d="M2808.68 2777.36c4.85,8.4 1.97,19.15 -6.43,24"/>
    <path class="fil0 str0" d="M2802.25 2801.36c-4.2,2.43 -9.58,0.99 -12,-3.21"/>
    <path class="fil0 str0" d="M2790.25 2798.15c-1.21,-2.1 -0.49,-4.79 1.61,-6"/>
    <path class="fil0 str0" d="M2791.86 2792.15c1.05,-0.61 2.39,-0.25 3,0.8"/>
    <path class="fil0 str0" d="M2794.86 2792.95c0.3,0.53 0.12,1.2 -0.4,1.5"/>
   </g>
   <g>
    <path class="fil0 str0" d="M3693.83 5492.56c-1242.07,0 -2248.97,-1006.9 -2248.97,-2248.97"/>
    <path class="fil0 str0" d="M1444.85 3243.59c0,-621.04 503.45,-1124.49 1124.49,-1124.49"/>
    <path class="fil0 str0" d="M2569.34 2119.1c310.52,0 562.24,251.73 562.24,562.24"/>
    <path class="fil0 str0" d="M3131.58 2681.34c0,155.26 -125.86,281.12 -281.12,281.12"/>
    <path class="fil0 str0" d="M2850.46 2962.47c-77.63,0 -140.56,-62.93 -140.56,-140.56"/>
    <path class="fil0 str0" d="M2709.9 2821.91c0,-38.81 31.47,-70.28 70.28,-70.28"/>
    <path class="fil0 str0" d="M2780.18 2751.63c19.41,0 35.14,15.73 35.14,35.14"/>
    <path class="fil0 str0" d="M2815.32 2786.77c0,9.7 -7.87,17.57 -17.57,17.57"/>
    <path class="fil0 str0" d="M2797.75 2804.34c-4.85,0 -8.79,-3.93 -8.79,-8.79"/>
    <path class="fil0 str0" d="M2788.96 2795.55c0,-2.43 1.97,-4.39 4.39,-4.39"/>
    <path class="fil0 str0" d="M2793.36 2791.16c1.21,0 2.2,0.98 2.2,2.2"/>
    <path class="fil0 str0" d="M2795.55 2793.35c0,0.61 -0.49,1.1 -1.1,1.1"/>
   </g>
   <g>
    <path class="fil0 str0" d="M2224.28 5580.77c-1075.66,-621.03 -1444.22,-1996.49 -823.18,-3072.15"/>
    <path class="fil0 str0" d="M1401.1 2508.62c310.52,-537.83 998.24,-722.11 1536.08,-411.59"/>
    <path class="fil0 str0" d="M2937.17 2097.02c268.92,155.26 361.05,499.12 205.8,768.04"/>
    <path class="fil0 str0" d="M3142.97 2865.06c-77.63,134.46 -249.56,180.53 -384.02,102.9"/>
    <path class="fil0 str0" d="M2758.95 2967.96c-67.23,-38.81 -90.26,-124.78 -51.45,-192.01"/>
    <path class="fil0 str0" d="M2707.5 2775.95c19.41,-33.61 62.39,-45.13 96.01,-25.72"/>
    <path class="fil0 str0" d="M2803.51 2750.23c16.81,9.7 22.57,31.19 12.86,48"/>
    <path class="fil0 str0" d="M2816.37 2798.23c-4.85,8.4 -15.6,11.28 -24,6.43"/>
    <path class="fil0 str0" d="M2792.37 2804.66c-4.2,-2.43 -5.64,-7.8 -3.22,-12"/>
    <path class="fil0 str0" d="M2789.15 2792.66c1.21,-2.1 3.9,-2.82 6,-1.61"/>
    <path class="fil0 str0" d="M2795.15 2791.05c1.05,0.61 1.41,1.95 0.8,3"/>
    <path class="fil0 str0" d="M2795.95 2794.05c-0.3,0.53 -0.97,0.71 -1.5,0.4"/>
   </g>
   <g>
    <path class="fil0 str0" d="M907.51 4922.39c-621.04,-1075.66 -252.48,-2451.12 823.18,-3072.15"/>
    <path class="fil0 str0" d="M1730.69 1850.23c537.83,-310.52 1225.56,-126.24 1536.08,411.59"/>
    <path class="fil0 str0" d="M3266.77 2261.82c155.26,268.92 63.12,612.78 -205.8,768.04"/>
    <path class="fil0 str0" d="M3060.97 3029.86c-134.46,77.63 -306.39,31.56 -384.02,-102.9"/>
    <path class="fil0 str0" d="M2676.95 2926.96c-38.82,-67.23 -15.78,-153.2 51.45,-192.01"/>
    <path class="fil0 str0" d="M2728.4 2734.95c33.61,-19.41 76.6,-7.89 96,25.72"/>
    <path class="fil0 str0" d="M2824.41 2760.68c9.7,16.81 3.95,38.3 -12.86,48"/>
    <path class="fil0 str0" d="M2811.54 2808.68c-8.4,4.85 -19.15,1.97 -24,-6.43"/>
    <path class="fil0 str0" d="M2787.54 2802.25c-2.43,-4.2 -0.99,-9.58 3.21,-12"/>
    <path class="fil0 str0" d="M2790.76 2790.25c2.1,-1.21 4.79,-0.49 6,1.61"/>
    <path class="fil0 str0" d="M2796.76 2791.86c0.61,1.05 0.25,2.39 -0.8,3"/>
    <path class="fil0 str0" d="M2795.95 2794.86c-0.53,0.3 -1.2,0.12 -1.5,-0.4"/>
   </g>
  </g>
 </g>
</svg>
