<?xml version="1.0" encoding="UTF-8"?>
<!DOCTYPE svg PUBLIC "-//W3C//DTD SVG 1.1//EN" "http://www.w3.org/Graphics/SVG/1.1/DTD/svg11.dtd">
<!-- Creator: CorelDRAW 2021 (64 Bit) -->
<svg xmlns="http://www.w3.org/2000/svg" xml:space="preserve" width="419.674mm" height="419.674mm" version="1.1" style="shape-rendering:geometricPrecision; text-rendering:geometricPrecision; image-rendering:optimizeQuality; fill-rule:evenodd; clip-rule:evenodd"
viewBox="0 0 4206.57 4206.57"
 xmlns:xlink="http://www.w3.org/1999/xlink"
 xmlns:xodm="http://www.corel.com/coreldraw/odm/2003">
 <defs>
  <style type="text/css">
   <![CDATA[
    .str0 {stroke:#373435;stroke-width:14.14;stroke-miterlimit:22.9256}
    .fil0 {fill:none}
   ]]>
  </style>
 </defs>
 <g id="Camada_x0020_1">
  <metadata id="CorelCorpID_0Corel-Layer"/>
  <g id="_2459529000480">
   <g>
    <path class="fil0 str0" d="M4134.06 2780.21c0,-934.86 -757.86,-1692.72 -1692.72,-1692.72"/>
    <path class="fil0 str0" d="M2441.33 1087.49c-467.43,0 -846.36,378.93 -846.36,846.36"/>
    <path class="fil0 str0" d="M1594.97 1933.85c0,233.72 189.46,423.18 423.18,423.18"/>
    <path class="fil0 str0" d="M2018.15 2357.03c116.86,0 211.59,-94.73 211.59,-211.59"/>
    <path class="fil0 str0" d="M2229.74 2145.44c0,-58.43 -47.37,-105.8 -105.8,-105.8"/>
    <path class="fil0 str0" d="M2123.95 2039.65c-29.21,0 -52.9,23.68 -52.9,52.9"/>
    <path class="fil0 str0" d="M2071.05 2092.54c0,14.61 11.84,26.45 26.45,26.45"/>
    <path class="fil0 str0" d="M2097.5 2118.99c7.3,0 13.22,-5.92 13.22,-13.22"/>
    <path class="fil0 str0" d="M2110.72 2105.77c0,-3.65 -2.96,-6.61 -6.61,-6.61"/>
    <path class="fil0 str0" d="M2104.11 2099.15c-1.83,0 -3.31,1.48 -3.31,3.31"/>
    <path class="fil0 str0" d="M2100.81 2102.46c0,0.91 0.74,1.65 1.65,1.65"/>
    <path class="fil0 str0" d="M2102.46 2104.11c0.46,0 0.83,-0.37 0.83,-0.83"/>
   </g>
   <g>
    <path class="fil0 str0" d="M4200.45 1674.14c-467.43,-809.61 -1502.69,-1087.01 -2312.3,-619.58"/>
    <path class="fil0 str0" d="M1888.15 1054.56c-404.81,233.72 -543.51,751.34 -309.79,1156.15"/>
    <path class="fil0 str0" d="M1578.36 2210.71c116.86,202.4 375.67,271.75 578.08,154.9"/>
    <path class="fil0 str0" d="M2156.43 2365.6c101.2,-58.43 135.88,-187.84 77.45,-289.04"/>
    <path class="fil0 str0" d="M2233.88 2076.56c-29.21,-50.6 -93.92,-67.94 -144.52,-38.72"/>
    <path class="fil0 str0" d="M2089.36 2037.84c-25.3,14.61 -33.97,46.96 -19.36,72.26"/>
    <path class="fil0 str0" d="M2070 2110.1c7.3,12.65 23.48,16.98 36.13,9.68"/>
    <path class="fil0 str0" d="M2106.13 2119.78c6.33,-3.65 8.49,-11.74 4.84,-18.07"/>
    <path class="fil0 str0" d="M2110.97 2101.72c-1.83,-3.16 -5.87,-4.25 -9.03,-2.42"/>
    <path class="fil0 str0" d="M2101.94 2099.29c-1.58,0.91 -2.12,2.93 -1.21,4.52"/>
    <path class="fil0 str0" d="M2100.73 2103.81c0.46,0.79 1.47,1.06 2.26,0.61"/>
    <path class="fil0 str0" d="M2102.98 2104.42c0.4,-0.23 0.53,-0.73 0.3,-1.13"/>
   </g>
   <g>
    <path class="fil0 str0" d="M3704.91 683.05c-809.61,-467.43 -1844.87,-190.04 -2312.3,619.58"/>
    <path class="fil0 str0" d="M1392.6 1302.63c-233.72,404.81 -95.02,922.43 309.79,1156.15"/>
    <path class="fil0 str0" d="M1702.39 2458.78c202.4,116.86 461.22,47.51 578.08,-154.9"/>
    <path class="fil0 str0" d="M2280.47 2303.89c58.43,-101.2 23.75,-230.61 -77.45,-289.04"/>
    <path class="fil0 str0" d="M2203.02 2014.85c-50.6,-29.22 -115.3,-11.88 -144.52,38.72"/>
    <path class="fil0 str0" d="M2058.5 2053.57c-14.61,25.3 -5.94,57.65 19.36,72.26"/>
    <path class="fil0 str0" d="M2077.86 2125.83c12.65,7.3 28.83,2.97 36.13,-9.68"/>
    <path class="fil0 str0" d="M2113.99 2116.15c3.65,-6.33 1.48,-14.41 -4.84,-18.07"/>
    <path class="fil0 str0" d="M2109.15 2098.08c-3.16,-1.83 -7.21,-0.74 -9.03,2.42"/>
    <path class="fil0 str0" d="M2100.12 2100.5c-0.91,1.58 -0.37,3.6 1.21,4.52"/>
    <path class="fil0 str0" d="M2101.33 2105.02c0.79,0.46 1.8,0.19 2.26,-0.61"/>
    <path class="fil0 str0" d="M2103.59 2104.42c0.23,-0.4 0.09,-0.9 -0.3,-1.13"/>
   </g>
   <g>
    <path class="fil0 str0" d="M2780.21 72.52c-934.86,0 -1692.72,757.86 -1692.72,1692.72"/>
    <path class="fil0 str0" d="M1087.49 1765.24c0,467.43 378.93,846.36 846.36,846.36"/>
    <path class="fil0 str0" d="M1933.85 2611.6c233.72,0 423.18,-189.46 423.18,-423.18"/>
    <path class="fil0 str0" d="M2357.03 2188.42c0,-116.86 -94.73,-211.59 -211.59,-211.59"/>
    <path class="fil0 str0" d="M2145.44 1976.83c-58.43,0 -105.8,47.37 -105.8,105.8"/>
    <path class="fil0 str0" d="M2039.65 2082.62c0,29.21 23.68,52.9 52.9,52.9"/>
    <path class="fil0 str0" d="M2092.54 2135.52c14.61,0 26.45,-11.84 26.45,-26.45"/>
    <path class="fil0 str0" d="M2118.99 2109.07c0,-7.3 -5.92,-13.22 -13.22,-13.22"/>
    <path class="fil0 str0" d="M2105.77 2095.85c-3.65,0 -6.61,2.96 -6.61,6.61"/>
    <path class="fil0 str0" d="M2099.15 2102.46c0,1.83 1.48,3.31 3.31,3.31"/>
    <path class="fil0 str0" d="M2102.46 2105.77c0.91,0 1.65,-0.74 1.65,-1.65"/>
    <path class="fil0 str0" d="M2104.11 2104.11c0,-0.46 -0.37,-0.83 -0.83,-0.83"/>
   </g>
   <g>
    <path class="fil0 str0" d="M1674.14 6.12c-809.61,467.43 -1087.01,1502.69 -619.58,2312.3"/>
    <path class="fil0 str0" d="M1054.56 2318.43c233.72,404.81 751.34,543.51 1156.15,309.79"/>
    <path class="fil0 str0" d="M2210.71 2628.22c202.4,-116.86 271.75,-375.67 154.9,-578.08"/>
    <path class="fil0 str0" d="M2365.6 2050.14c-58.43,-101.2 -187.84,-135.88 -289.04,-77.45"/>
    <path class="fil0 str0" d="M2076.56 1972.69c-50.6,29.21 -67.94,93.92 -38.72,144.52"/>
    <path class="fil0 str0" d="M2037.84 2117.21c14.61,25.3 46.96,33.97 72.26,19.36"/>
    <path class="fil0 str0" d="M2110.1 2136.57c12.65,-7.3 16.98,-23.48 9.68,-36.13"/>
    <path class="fil0 str0" d="M2119.78 2100.44c-3.65,-6.33 -11.74,-8.49 -18.07,-4.84"/>
    <path class="fil0 str0" d="M2101.72 2095.6c-3.16,1.83 -4.25,5.87 -2.42,9.03"/>
    <path class="fil0 str0" d="M2099.29 2104.64c0.91,1.58 2.93,2.12 4.52,1.21"/>
    <path class="fil0 str0" d="M2103.81 2105.85c0.79,-0.46 1.06,-1.47 0.61,-2.26"/>
    <path class="fil0 str0" d="M2104.42 2103.59c-0.23,-0.4 -0.73,-0.53 -1.13,-0.3"/>
   </g>
   <g>
    <path class="fil0 str0" d="M683.05 501.67c-467.43,809.61 -190.04,1844.87 619.58,2312.3"/>
    <path class="fil0 str0" d="M1302.63 2813.97c404.81,233.72 922.43,95.02 1156.15,-309.79"/>
    <path class="fil0 str0" d="M2458.78 2504.18c116.86,-202.4 47.51,-461.22 -154.9,-578.08"/>
    <path class="fil0 str0" d="M2303.89 1926.1c-101.2,-58.43 -230.61,-23.75 -289.04,77.45"/>
    <path class="fil0 str0" d="M2014.85 2003.55c-29.22,50.6 -11.88,115.3 38.72,144.52"/>
    <path class="fil0 str0" d="M2053.57 2148.07c25.3,14.61 57.65,5.94 72.26,-19.36"/>
    <path class="fil0 str0" d="M2125.83 2128.71c7.3,-12.65 2.97,-28.83 -9.68,-36.13"/>
    <path class="fil0 str0" d="M2116.15 2092.58c-6.33,-3.65 -14.41,-1.48 -18.07,4.84"/>
    <path class="fil0 str0" d="M2098.08 2097.42c-1.83,3.16 -0.74,7.21 2.42,9.03"/>
    <path class="fil0 str0" d="M2100.5 2106.45c1.58,0.91 3.6,0.37 4.52,-1.21"/>
    <path class="fil0 str0" d="M2105.02 2105.24c0.46,-0.79 0.19,-1.8 -0.61,-2.26"/>
    <path class="fil0 str0" d="M2104.42 2102.98c-0.4,-0.23 -0.9,-0.09 -1.13,0.3"/>
   </g>
   <g>
    <path class="fil0 str0" d="M72.52 1426.36c0,934.86 757.86,1692.72 1692.72,1692.72"/>
    <path class="fil0 str0" d="M1765.24 3119.08c467.43,0 846.36,-378.93 846.36,-846.36"/>
    <path class="fil0 str0" d="M2611.6 2272.72c0,-233.72 -189.46,-423.18 -423.18,-423.18"/>
    <path class="fil0 str0" d="M2188.42 1849.54c-116.86,0 -211.59,94.73 -211.59,211.59"/>
    <path class="fil0 str0" d="M1976.83 2061.13c0,58.43 47.37,105.8 105.8,105.8"/>
    <path class="fil0 str0" d="M2082.62 2166.93c29.21,0 52.9,-23.68 52.9,-52.9"/>
    <path class="fil0 str0" d="M2135.52 2114.03c0,-14.61 -11.84,-26.45 -26.45,-26.45"/>
    <path class="fil0 str0" d="M2109.07 2087.58c-7.3,0 -13.22,5.92 -13.22,13.22"/>
    <path class="fil0 str0" d="M2095.85 2100.81c0,3.65 2.96,6.61 6.61,6.61"/>
    <path class="fil0 str0" d="M2102.46 2107.42c1.83,0 3.31,-1.48 3.31,-3.31"/>
    <path class="fil0 str0" d="M2105.77 2104.11c0,-0.91 -0.74,-1.65 -1.65,-1.65"/>
    <path class="fil0 str0" d="M2104.11 2102.46c-0.46,0 -0.83,0.37 -0.83,0.83"/>
   </g>
   <g>
    <path class="fil0 str0" d="M6.12 2532.44c467.43,809.61 1502.69,1087.01 2312.3,619.58"/>
    <path class="fil0 str0" d="M2318.43 3152.02c404.81,-233.72 543.51,-751.34 309.79,-1156.15"/>
    <path class="fil0 str0" d="M2628.22 1995.86c-116.86,-202.4 -375.67,-271.75 -578.08,-154.9"/>
    <path class="fil0 str0" d="M2050.14 1840.97c-101.2,58.43 -135.88,187.84 -77.45,289.04"/>
    <path class="fil0 str0" d="M1972.69 2130.01c29.21,50.6 93.92,67.94 144.52,38.72"/>
    <path class="fil0 str0" d="M2117.21 2168.73c25.3,-14.61 33.97,-46.96 19.36,-72.26"/>
    <path class="fil0 str0" d="M2136.57 2096.47c-7.3,-12.65 -23.48,-16.98 -36.13,-9.68"/>
    <path class="fil0 str0" d="M2100.44 2086.79c-6.33,3.65 -8.49,11.74 -4.84,18.07"/>
    <path class="fil0 str0" d="M2095.6 2104.86c1.83,3.16 5.87,4.25 9.03,2.42"/>
    <path class="fil0 str0" d="M2104.64 2107.28c1.58,-0.91 2.12,-2.93 1.21,-4.52"/>
    <path class="fil0 str0" d="M2105.85 2102.76c-0.46,-0.79 -1.47,-1.06 -2.26,-0.61"/>
    <path class="fil0 str0" d="M2103.59 2102.16c-0.4,0.23 -0.53,0.73 -0.3,1.13"/>
   </g>
   <g>
    <path class="fil0 str0" d="M501.67 3523.52c809.61,467.43 1844.87,190.04 2312.3,-619.58"/>
    <path class="fil0 str0" d="M2813.97 2903.94c233.72,-404.81 95.02,-922.43 -309.79,-1156.15"/>
    <path class="fil0 str0" d="M2504.18 1747.79c-202.4,-116.86 -461.22,-47.51 -578.08,154.9"/>
    <path class="fil0 str0" d="M1926.1 1902.69c-58.43,101.2 -23.75,230.61 77.45,289.04"/>
    <path class="fil0 str0" d="M2003.55 2191.72c50.6,29.22 115.3,11.88 144.52,-38.72"/>
    <path class="fil0 str0" d="M2148.07 2153c14.61,-25.3 5.94,-57.65 -19.36,-72.26"/>
    <path class="fil0 str0" d="M2128.71 2080.74c-12.65,-7.3 -28.83,-2.97 -36.13,9.68"/>
    <path class="fil0 str0" d="M2092.58 2090.42c-3.65,6.33 -1.48,14.41 4.84,18.07"/>
    <path class="fil0 str0" d="M2097.42 2108.49c3.16,1.83 7.21,0.74 9.03,-2.42"/>
    <path class="fil0 str0" d="M2106.45 2106.07c0.91,-1.58 0.37,-3.6 -1.21,-4.52"/>
    <path class="fil0 str0" d="M2105.24 2101.55c-0.79,-0.46 -1.8,-0.19 -2.26,0.61"/>
    <path class="fil0 str0" d="M2102.98 2102.16c-0.23,0.4 -0.09,0.9 0.3,1.13"/>
   </g>
   <g>
    <path class="fil0 str0" d="M1426.36 4134.06c934.86,0 1692.72,-757.86 1692.72,-1692.72"/>
    <path class="fil0 str0" d="M3119.08 2441.33c0,-467.43 -378.93,-846.36 -846.36,-846.36"/>
    <path class="fil0 str0" d="M2272.72 1594.97c-233.72,0 -423.18,189.46 -423.18,423.18"/>
    <path class="fil0 str0" d="M1849.54 2018.15c0,116.86 94.73,211.59 211.59,211.59"/>
    <path class="fil0 str0" d="M2061.13 2229.74c58.43,0 105.8,-47.37 105.8,-105.8"/>
    <path class="fil0 str0" d="M2166.93 2123.95c0,-29.21 -23.68,-52.9 -52.9,-52.9"/>
    <path class="fil0 str0" d="M2114.03 2071.05c-14.61,0 -26.45,11.84 -26.45,26.45"/>
    <path class="fil0 str0" d="M2087.58 2097.5c0,7.3 5.92,13.22 13.22,13.22"/>
    <path class="fil0 str0" d="M2100.81 2110.72c3.65,0 6.61,-2.96 6.61,-6.61"/>
    <path class="fil0 str0" d="M2107.42 2104.11c0,-1.83 -1.48,-3.31 -3.31,-3.31"/>
    <path class="fil0 str0" d="M2104.11 2100.81c-0.91,0 -1.65,0.74 -1.65,1.65"/>
    <path class="fil0 str0" d="M2102.46 2102.46c0,0.46 0.37,0.83 0.83,0.83"/>
   </g>
   <g>
    <path class="fil0 str0" d="M2532.44 4200.45c809.61,-467.43 1087.01,-1502.69 619.58,-2312.3"/>
    <path class="fil0 str0" d="M3152.02 1888.15c-233.72,-404.81 -751.34,-543.51 -1156.15,-309.79"/>
    <path class="fil0 str0" d="M1995.86 1578.36c-202.4,116.86 -271.75,375.67 -154.9,578.08"/>
    <path class="fil0 str0" d="M1840.97 2156.43c58.43,101.2 187.84,135.88 289.04,77.45"/>
    <path class="fil0 str0" d="M2130.01 2233.88c50.6,-29.21 67.94,-93.92 38.72,-144.52"/>
    <path class="fil0 str0" d="M2168.73 2089.36c-14.61,-25.3 -46.96,-33.97 -72.26,-19.36"/>
    <path class="fil0 str0" d="M2096.47 2070c-12.65,7.3 -16.98,23.48 -9.68,36.13"/>
    <path class="fil0 str0" d="M2086.79 2106.13c3.65,6.33 11.74,8.49 18.07,4.84"/>
    <path class="fil0 str0" d="M2104.86 2110.97c3.16,-1.83 4.25,-5.87 2.42,-9.03"/>
    <path class="fil0 str0" d="M2107.28 2101.94c-0.91,-1.58 -2.93,-2.12 -4.52,-1.21"/>
    <path class="fil0 str0" d="M2102.76 2100.73c-0.79,0.46 -1.06,1.47 -0.61,2.26"/>
    <path class="fil0 str0" d="M2102.16 2102.98c0.23,0.4 0.73,0.53 1.13,0.3"/>
   </g>
   <g>
    <path class="fil0 str0" d="M3523.52 3704.91c467.43,-809.61 190.04,-1844.87 -619.58,-2312.3"/>
    <path class="fil0 str0" d="M2903.94 1392.6c-404.81,-233.72 -922.43,-95.02 -1156.15,309.79"/>
    <path class="fil0 str0" d="M1747.79 1702.39c-116.86,202.4 -47.51,461.22 154.9,578.08"/>
    <path class="fil0 str0" d="M1902.69 2280.47c101.2,58.43 230.61,23.75 289.04,-77.45"/>
    <path class="fil0 str0" d="M2191.72 2203.02c29.22,-50.6 11.88,-115.3 -38.72,-144.52"/>
    <path class="fil0 str0" d="M2153 2058.5c-25.3,-14.61 -57.65,-5.94 -72.26,19.36"/>
    <path class="fil0 str0" d="M2080.74 2077.86c-7.3,12.65 -2.97,28.83 9.68,36.13"/>
    <path class="fil0 str0" d="M2090.42 2113.99c6.33,3.65 14.41,1.48 18.07,-4.84"/>
    <path class="fil0 str0" d="M2108.49 2109.15c1.83,-3.16 0.74,-7.21 -2.42,-9.03"/>
    <path class="fil0 str0" d="M2106.07 2100.12c-1.58,-0.91 -3.6,-0.37 -4.52,1.21"/>
    <path class="fil0 str0" d="M2101.55 2101.33c-0.46,0.79 -0.19,1.8 0.61,2.26"/>
    <path class="fil0 str0" d="M2102.16 2103.59c0.4,0.23 0.9,0.09 1.13,-0.3"/>
   </g>
  </g>
 </g>
</svg>
