<?xml version="1.0" encoding="UTF-8"?>
<!DOCTYPE svg PUBLIC "-//W3C//DTD SVG 1.1//EN" "http://www.w3.org/Graphics/SVG/1.1/DTD/svg11.dtd">
<!-- Creator: CorelDRAW 2021 (64 Bit) -->
<svg xmlns="http://www.w3.org/2000/svg" xml:space="preserve" width="404.159mm" height="404.159mm" version="1.1" style="shape-rendering:geometricPrecision; text-rendering:geometricPrecision; image-rendering:optimizeQuality; fill-rule:evenodd; clip-rule:evenodd"
viewBox="0 0 16278.8 16278.8"
 xmlns:xlink="http://www.w3.org/1999/xlink"
 xmlns:xodm="http://www.corel.com/coreldraw/odm/2003">
 <defs>
  <style type="text/css">
   <![CDATA[
    .fil0 {fill:#4B4B4D}
   ]]>
  </style>
 </defs>
 <g id="Camada_x0020_1">
  <metadata id="CorelCorpID_0Corel-Layer"/>
  <path class="fil0" d="M8120 8128.2c-0.25,1.97 -0.28,3.98 -0.08,5.97 1.02,-1.43 2.2,-2.77 3.52,-3.99 0.39,-1.75 0.97,-3.44 1.69,-5.04 0.83,-1.83 1.86,-3.55 3.06,-5.14 1.36,-1.79 2.95,-3.4 4.71,-4.8 1.96,-1.54 4.14,-2.82 6.48,-3.77 2.5,-1.01 5.18,-1.66 7.99,-1.86 0.66,-0.05 1.32,-0.07 1.98,-0.07 2.38,0 4.72,0.16 7.02,0.46 3.48,0.46 6.86,1.26 10.09,2.36 3.85,1.31 7.5,3.04 10.9,5.15 3.98,2.47 7.61,5.45 10.79,8.86 3.62,3.86 6.66,8.26 9,13.07 2.53,5.19 4.24,10.85 4.96,16.81 0.25,2.11 0.39,4.26 0.39,6.44 0,4.31 -0.26,8.57 -0.76,12.75 -0.89,7.42 -2.54,14.61 -4.87,21.48 -2.77,8.14 -6.49,15.83 -11.04,22.95 -5.28,8.25 -11.66,15.72 -18.93,22.21 -8.14,7.25 -17.41,13.27 -27.5,17.76 -10.72,4.77 -22.37,7.82 -34.62,8.8 -2.82,0.23 -5.68,0.34 -8.56,0.34 -10.31,0 -20.45,-0.73 -30.37,-2.15 -14.89,-2.13 -29.27,-5.8 -42.99,-10.85 -16.08,-5.91 -31.25,-13.71 -45.24,-23.14 -16.08,-10.83 -30.59,-23.79 -43.14,-38.49 -13.96,-16.34 -25.48,-34.84 -34,-54.9 -9.03,-21.25 -14.69,-44.27 -16.33,-68.39 -0.33,-4.84 -0.5,-9.72 -0.5,-14.64 0,-21.07 1.53,-41.78 4.49,-62.02 4.29,-29.31 11.56,-57.64 21.5,-84.68 11.67,-31.74 27.01,-61.69 45.51,-89.35 21.32,-31.87 46.84,-60.71 75.76,-85.7 32.28,-27.9 68.8,-51.02 108.47,-68.27 42.16,-18.33 87.87,-30.04 135.81,-33.78 11.08,-0.87 22.28,-1.31 33.59,-1.31 40.46,0 80.25,2.83 119.2,8.29 58.58,8.22 115.24,22.41 169.35,41.93 63.66,22.96 123.79,53.3 179.35,90 64.17,42.37 122.25,93.21 172.67,150.91 56.34,64.5 103.1,137.58 138.06,217.03 37.18,84.51 61.01,176.22 68.81,272.46 1.86,22.97 2.81,46.19 2.81,69.64 0,80.47 -5.59,159.63 -16.4,237.13 -16.41,117.61 -44.85,231.37 -84.03,339.99 -46.08,127.75 -107.03,248.39 -180.75,359.84 -85.08,128.61 -187.16,244.98 -303.05,345.91 -129.41,112.7 -276.04,206.14 -435.41,275.85 -169.36,74.08 -353.11,121.37 -545.9,136.51 -44.52,3.5 -89.53,5.28 -134.96,5.28 -162.62,0 -322.58,-11.41 -479.11,-33.48 -235.26,-33.17 -462.78,-90.41 -680,-169.15 -255.3,-92.54 -496.36,-214.78 -719.02,-362.54 -256.81,-170.42 -489.14,-374.8 -690.57,-606.72 -224.85,-258.88 -411.22,-552.09 -550.19,-870.72 -147.65,-338.52 -241.79,-705.74 -271.76,-1090.96 -6.87,-88.25 -10.36,-177.45 -10.36,-267.46 0,-325.69 22.89,-646.02 67.15,-959.49 66.37,-470.06 180.78,-924.67 338.11,-1358.72 184.92,-510.16 429.14,-991.91 724.32,-1436.92 340.51,-513.34 748.84,-977.79 1212.21,-1380.56 517.35,-449.69 1103.31,-822.51 1740.09,-1100.65 -676.71,-295.58 -1410.8,-484.25 -2180.94,-544.65 -636.76,437.38 -1178.18,967.81 -1616.43,1562.15 -412.4,559.27 -733.45,1175.11 -956.63,1823.24 -199.9,580.5 -321.31,1186.89 -359.53,1801.71 -33.13,532.98 -3.75,1072.29 91.18,1606.56 80.77,454.56 208.99,905.48 386.55,1345.74 118.41,293.6 258.76,582.47 421.6,864.52 45.01,77.95 92.63,153.45 142.7,226.44 218.56,318.63 483.7,589.57 780.83,808.92 279.66,206.45 587.67,367.2 911.84,478.97 290.41,100.13 593.79,160.96 901.41,180.15 266.71,16.63 536.59,1.97 803.96,-45.54 227.49,-40.42 453.15,-104.61 673.48,-193.52 146.6,-59.15 290.83,-129.24 431.66,-210.55 39.34,-22.71 77.43,-46.76 114.24,-72.05 159.39,-109.5 294.88,-242.33 404.51,-391.17 103.16,-140.06 183.43,-294.29 239.15,-456.6 49.9,-145.35 80.13,-297.18 89.5,-451.1 8.12,-133.38 0.58,-268.33 -23.39,-402.01 -20.38,-113.66 -52.63,-226.4 -97.22,-336.46 -29.38,-72.52 -64.13,-143.87 -104.36,-213.56 -11.72,-20.3 -24.16,-39.94 -37.25,-58.9 -54.87,-79.44 -121.37,-146.95 -195.82,-201.55 -70,-51.33 -147.04,-91.24 -228.08,-118.92 -72.51,-24.77 -148.24,-39.75 -224.99,-44.36 -66.47,-3.99 -133.72,-0.21 -200.32,11.74 -56.62,10.15 -112.79,26.19 -167.62,48.37 -36.46,14.74 -72.34,32.19 -107.38,52.42 -9.79,5.65 -19.27,11.63 -28.43,17.92 -39.65,27.22 -73.38,60.2 -100.73,97.16 -25.73,34.77 -45.79,73.06 -59.8,113.36 -12.55,36.11 -20.23,73.84 -22.76,112.11 -2.19,33.21 -0.5,66.82 5.26,100.14 4.91,28.39 12.78,56.57 23.72,84.09 7.56,19.02 16.59,37.72 27.12,55.96 2.46,4.26 5.05,8.41 7.75,12.43 13.48,20.07 29.9,37.17 48.34,51.06 17.42,13.12 36.64,23.37 56.9,30.55 18.21,6.45 37.27,10.42 56.61,11.77 16.82,1.16 33.86,0.34 50.74,-2.58 14.41,-2.49 28.7,-6.5 42.65,-12.1 9.3,-3.73 18.45,-8.16 27.38,-13.32 2.49,-1.44 4.91,-2.96 7.23,-4.57 10.11,-6.96 18.69,-15.43 25.58,-24.93 6.5,-8.93 11.51,-18.78 14.94,-29.13 3.06,-9.26 4.85,-18.92 5.3,-28.7 0.38,-8.44 -0.24,-16.97 -1.91,-25.4 -1.41,-7.12 -3.57,-14.17 -6.52,-21.04 -1.66,-3.87 -3.56,-7.68 -5.72,-11.42 -1.09,-1.89 -2.28,-3.69 -3.56,-5.39 -3.6,-4.8 -7.91,-8.85 -12.7,-12.08 -4.43,-2.99 -9.27,-5.28 -14.33,-6.82 -4.46,-1.35 -9.09,-2.12 -13.78,-2.27 -4,-0.13 -8.03,0.19 -12.01,0.98 -3.35,0.66 -6.67,1.66 -9.91,3 -2.14,0.89 -4.25,1.92 -6.31,3.11 -0.58,0.33 -1.14,0.68 -1.68,1.05 -2.33,1.58 -4.33,3.48 -5.99,5.61 -1.56,1.99 -2.81,4.19 -3.73,6.5 -0.83,2.09 -1.4,4.28 -1.68,6.51zm19.39 -11.2c-1.83,0.77 -3.58,1.74 -5.21,2.92 1.75,0.17 3.5,0.52 5.22,1.06 1.71,-0.54 3.46,-0.89 5.21,-1.06 2,-0.2 4,-0.17 5.98,0.08 2.23,0.29 4.42,0.85 6.51,1.68 2.32,0.92 4.51,2.17 6.5,3.73 2.13,1.66 4.03,3.66 5.61,5.99 0.37,0.55 0.72,1.11 1.06,1.68 1.18,2.06 2.22,4.17 3.11,6.31 1.35,3.24 2.34,6.57 3,9.91 0.79,3.99 1.12,8.02 0.99,12.01 -0.15,4.68 -0.92,9.32 -2.28,13.78 -1.53,5.06 -3.82,9.9 -6.82,14.33 -3.23,4.79 -7.27,9.09 -12.08,12.7 -1.7,1.27 -3.5,2.47 -5.39,3.56 -3.73,2.15 -7.55,4.06 -11.41,5.72 -6.87,2.94 -13.92,5.1 -21.04,6.52 -8.43,1.67 -16.96,2.3 -25.4,1.91 -9.78,-0.45 -19.44,-2.24 -28.7,-5.3 -10.35,-3.43 -20.2,-8.44 -29.13,-14.94 -9.49,-6.9 -17.96,-15.47 -24.92,-25.58 -1.61,-2.33 -3.13,-4.74 -4.57,-7.24 -5.16,-8.93 -9.59,-18.08 -13.32,-27.38 -5.6,-13.96 -9.61,-28.25 -12.1,-42.66 -2.92,-16.88 -3.75,-33.92 -2.59,-50.74 1.34,-19.34 5.31,-38.39 11.77,-56.61 7.18,-20.26 17.43,-39.48 30.55,-56.9 13.89,-18.44 30.99,-34.86 51.06,-48.34 4.02,-2.7 8.17,-5.29 12.43,-7.75 18.25,-10.54 36.94,-19.56 55.96,-27.12 27.53,-10.94 55.7,-18.81 84.09,-23.72 33.32,-5.76 66.93,-7.45 100.14,-5.26 38.26,2.53 75.99,10.21 112.1,22.76 40.3,14 78.59,34.07 113.36,59.8 36.96,27.34 69.94,61.07 97.16,100.72 6.29,9.16 12.27,18.64 17.93,28.43 20.23,35.04 37.68,70.92 52.42,107.38 22.17,54.84 38.21,111 48.37,167.62 11.94,66.61 15.73,133.85 11.74,200.32 -4.61,76.76 -19.6,152.48 -44.36,224.99 -27.69,81.04 -67.6,158.08 -118.93,228.08 -54.59,74.45 -122.11,140.95 -201.55,195.82 -18.96,13.09 -38.6,25.53 -58.9,37.25 -69.69,40.23 -141.04,74.97 -213.55,104.36 -110.06,44.6 -222.8,76.85 -336.46,97.22 -133.67,23.97 -268.62,31.5 -402.01,23.39 -153.92,-9.37 -305.74,-39.6 -451.1,-89.5 -162.3,-55.72 -316.54,-135.98 -456.6,-239.15 -148.83,-109.63 -281.67,-245.12 -391.17,-404.51 -25.29,-36.81 -49.34,-74.9 -72.05,-114.24 -81.31,-140.84 -151.41,-285.07 -210.56,-431.67 -88.91,-220.32 -153.09,-445.98 -193.52,-673.48 -47.5,-267.36 -62.18,-537.25 -45.54,-803.96 19.18,-307.62 80.02,-611 180.15,-901.41 111.77,-324.17 272.52,-632.17 478.97,-911.84 219.35,-297.13 490.29,-562.27 808.92,-780.83 72.99,-50.07 148.49,-97.7 226.44,-142.7 282.06,-162.84 570.92,-303.19 864.52,-421.6 440.26,-177.55 891.17,-305.78 1345.74,-386.55 534.27,-94.94 1073.59,-124.31 1606.57,-91.18 614.82,38.22 1221.21,159.62 1801.71,359.52 648.12,223.19 1263.97,544.24 1823.23,956.64 -82.37,-733.84 -286.03,-1463.92 -618.79,-2161.08 -697.16,-332.76 -1427.24,-536.42 -2161.07,-618.79 -690.54,-77.52 -1384.4,-47.63 -2057.29,83.14 -602.68,117.12 -1188.53,315.18 -1740.09,589.5 -478.14,237.79 -930.51,532.89 -1345.73,882.24 -353.28,297.23 -679.67,633.73 -972.17,1007.63 -195.07,249.34 -375.05,515.32 -537.9,797.37 -45,77.95 -86.57,156.94 -124.75,236.8 -166.66,348.59 -268.73,713.68 -310.13,1080.68 -38.96,345.42 -24.17,692.53 41.12,1029.16 58.48,301.57 157.5,594.72 294.69,870.72 118.95,239.29 266.59,465.68 441.42,673.48 148.75,176.8 317.17,340.13 504.33,486.49 124.52,97.38 257.34,187.24 398.17,268.55 39.34,22.71 79.21,43.67 119.52,62.91 174.53,83.29 357.31,134.21 541.02,154.73 172.87,19.32 346.58,11.71 515,-21.19 150.83,-29.46 297.42,-79.2 435.41,-148.04 119.57,-59.66 232.67,-133.67 336.46,-221.26 88.24,-74.47 169.75,-158.77 242.76,-252.42 48.11,-61.71 92.53,-127.47 132.77,-197.16 11.72,-20.31 22.51,-40.89 32.38,-61.71 41.36,-87.25 66.58,-178.59 76.64,-270.37 9.45,-86.28 5.49,-172.95 -11.05,-256.98 -14.8,-75.18 -39.69,-148.25 -74.08,-217.03 -29.78,-59.56 -66.68,-115.9 -110.33,-167.62 -37.1,-43.96 -79.08,-84.58 -125.7,-120.98 -31,-24.2 -64.05,-46.55 -99.09,-66.78 -9.79,-5.65 -19.71,-10.87 -29.74,-15.66 -43.39,-20.73 -88.83,-33.45 -134.5,-38.65 -42.98,-4.89 -86.17,-3.13 -128.07,4.89 -37.55,7.19 -74.06,19.4 -108.47,36.34 -29.85,14.71 -58.12,32.98 -84.09,54.63 -22.13,18.45 -42.6,39.35 -60.96,62.58 -12.69,16.05 -24.37,33.23 -34.91,51.47 -2.46,4.26 -4.76,8.58 -6.89,12.93 -10.64,21.71 -17.24,44.48 -20.05,67.39 -2.65,21.64 -1.92,43.42 1.99,64.55 3.52,19 9.61,37.49 18.11,54.91 7.41,15.15 16.64,29.49 27.61,42.65 9.36,11.23 19.99,21.61 31.81,30.89 7.88,6.19 16.3,11.9 25.23,17.05 2.49,1.44 5.02,2.77 7.57,3.98 11.08,5.27 22.71,8.47 34.38,9.69 10.98,1.16 22.02,0.58 32.69,-1.63 9.55,-1.97 18.81,-5.25 27.5,-9.76 7.5,-3.89 14.58,-8.69 21.04,-14.36 5.46,-4.79 10.48,-10.18 14.96,-16.16 2.52,-3.38 4.87,-6.92 7.03,-10.67 1.09,-1.89 2.05,-3.81 2.89,-5.77 2.36,-5.53 3.71,-11.28 4.11,-17.03 0.38,-5.33 -0.06,-10.67 -1.26,-15.82 -1.06,-4.54 -2.71,-8.94 -4.92,-13.07 -1.89,-3.52 -4.18,-6.86 -6.86,-9.91 -2.25,-2.57 -4.77,-4.94 -7.56,-7.08 -1.84,-1.41 -3.79,-2.72 -5.85,-3.91 -0.58,-0.33 -1.16,-0.64 -1.75,-0.93 -2.53,-1.22 -5.18,-2.01 -7.85,-2.38 -2.51,-0.35 -5.03,-0.34 -7.5,0.02 -2.23,0.32 -4.41,0.93 -6.48,1.8zm19.39 11.2c-1.58,-1.2 -3.3,-2.23 -5.13,-3.06 0.73,1.6 1.3,3.29 1.69,5.05 1.32,1.22 2.5,2.55 3.52,3.98 1.17,1.64 2.15,3.39 2.92,5.22 0.87,2.08 1.47,4.25 1.8,6.48 0.36,2.47 0.37,4.99 0.02,7.5 -0.37,2.67 -1.16,5.32 -2.38,7.85 -0.29,0.6 -0.6,1.18 -0.92,1.76 -1.2,2.06 -2.51,4.01 -3.92,5.85 -2.13,2.78 -4.52,5.31 -7.08,7.56 -3.06,2.68 -6.38,4.97 -9.91,6.86 -4.13,2.21 -8.53,3.86 -13.07,4.92 -5.15,1.2 -10.48,1.64 -15.82,1.26 -5.76,-0.4 -11.51,-1.75 -17.03,-4.11 -1.95,-0.84 -3.88,-1.8 -5.78,-2.89 -3.73,-2.16 -7.29,-4.51 -10.66,-7.03 -5.99,-4.48 -11.38,-9.51 -16.16,-14.96 -5.66,-6.46 -10.47,-13.53 -14.36,-21.04 -4.5,-8.7 -7.79,-17.96 -9.76,-27.5 -2.21,-10.68 -2.79,-21.71 -1.63,-32.7 1.23,-11.67 4.41,-23.29 9.69,-34.38 1.22,-2.56 2.54,-5.09 3.98,-7.58 5.16,-8.93 10.86,-17.35 17.05,-25.23 9.29,-11.83 19.66,-22.45 30.89,-31.81 13.16,-10.97 27.5,-20.21 42.65,-27.61 17.42,-8.51 35.9,-14.6 54.91,-18.11 21.13,-3.92 42.91,-4.64 64.55,-1.99 22.91,2.81 45.69,9.41 67.4,20.05 4.35,2.13 8.66,4.43 12.93,6.89 18.25,10.53 35.41,22.21 51.47,34.9 23.24,18.37 44.14,38.83 62.59,60.97 21.65,25.98 39.92,54.24 54.63,84.1 16.94,34.4 29.15,70.91 36.34,108.46 8.02,41.91 9.79,85.1 4.89,128.07 -5.2,45.67 -17.92,91.11 -38.65,134.5 -4.79,10.03 -10.01,19.95 -15.66,29.74 -20.23,35.04 -42.58,68.09 -66.78,99.09 -36.41,46.62 -77.02,88.6 -120.98,125.7 -51.72,43.65 -108.06,80.55 -167.62,110.33 -68.78,34.39 -141.85,59.27 -217.03,74.08 -84.03,16.54 -170.7,20.5 -256.99,11.05 -91.77,-10.05 -183.12,-35.28 -270.36,-76.64 -20.82,-9.87 -41.41,-20.66 -61.71,-32.38 -69.69,-40.24 -135.45,-84.66 -197.15,-132.77 -93.65,-73.02 -177.95,-154.52 -252.43,-242.77 -87.59,-103.78 -161.59,-216.89 -221.26,-336.46 -68.84,-137.98 -118.58,-284.58 -148.04,-435.41 -32.89,-168.42 -40.5,-342.12 -21.19,-515 20.53,-183.71 71.45,-366.49 154.73,-541.02 19.24,-40.31 40.2,-80.18 62.91,-119.51 81.31,-140.84 171.17,-273.65 268.55,-398.18 146.35,-187.15 309.69,-355.57 486.49,-504.33 207.79,-174.82 434.18,-322.47 673.48,-441.42 275.99,-137.2 569.15,-236.21 870.72,-294.7 336.62,-65.29 683.73,-80.08 1029.16,-41.12 366.99,41.39 732.08,143.47 1080.68,310.13 79.86,38.18 158.85,79.75 236.8,124.75 282.06,162.84 548.03,342.84 797.37,537.9 373.9,292.5 710.4,618.89 1007.63,972.17 349.35,415.23 644.45,867.6 882.25,1345.74 274.31,551.56 472.37,1137.41 589.5,1740.09 130.77,672.89 160.65,1366.75 83.14,2057.29 594.34,-438.25 1124.78,-979.67 1562.15,-1616.43 -60.4,-770.14 -249.06,-1504.24 -544.65,-2180.94 -278.14,-636.79 -650.95,-1222.74 -1100.65,-1740.09 -402.77,-463.37 -867.22,-871.7 -1380.56,-1212.21 -445.01,-295.19 -926.75,-539.4 -1436.91,-724.32 -434.05,-157.33 -888.66,-271.74 -1358.72,-338.11 -313.47,-44.26 -633.81,-67.15 -959.49,-67.15 -90.01,0 -179.21,3.5 -267.45,10.36 -385.22,29.96 -752.44,124.11 -1090.96,271.76 -318.62,138.97 -611.83,325.33 -870.72,550.19 -231.92,201.44 -436.29,433.76 -606.72,690.57 -147.76,222.65 -270,463.72 -362.54,719.02 -78.74,217.22 -135.98,444.75 -169.15,680.01 -22.07,156.53 -33.49,316.49 -33.49,479.1 0,45.43 1.78,90.43 5.28,134.96 15.14,192.79 62.43,376.54 136.51,545.9 69.71,159.37 163.15,306 275.85,435.41 100.93,115.9 217.3,217.98 345.91,303.05 111.45,73.73 232.09,134.67 359.85,180.76 108.62,39.18 222.38,67.62 339.98,84.03 77.49,10.81 156.66,16.4 237.13,16.4 23.45,-0 46.67,-0.95 69.64,-2.81 96.24,-7.8 187.95,-31.63 272.46,-68.81 79.45,-34.96 152.53,-81.72 217.03,-138.07 57.71,-50.41 108.54,-108.5 150.91,-172.66 36.69,-55.57 67.03,-115.7 90,-179.35 19.52,-54.11 33.71,-110.77 41.93,-169.35 5.46,-38.95 8.29,-78.75 8.29,-119.2 0,-11.3 -0.44,-22.5 -1.31,-33.58 -3.74,-47.94 -15.44,-93.65 -33.78,-135.81 -17.25,-39.67 -40.37,-76.19 -68.28,-108.47 -25,-28.92 -53.83,-54.44 -85.7,-75.77 -27.67,-18.5 -57.62,-33.84 -89.35,-45.51 -27.04,-9.94 -55.38,-17.21 -84.68,-21.5 -20.25,-2.96 -40.96,-4.49 -62.03,-4.49 -4.92,0 -9.8,0.17 -14.64,0.5 -24.12,1.64 -47.14,7.31 -68.39,16.33 -20.07,8.52 -38.56,20.05 -54.91,34 -14.7,12.55 -27.66,27.06 -38.49,43.14 -9.42,13.99 -17.22,29.15 -23.13,45.23 -5.05,13.72 -8.72,28.11 -10.85,42.99 -1.42,9.92 -2.15,20.06 -2.15,30.37 -0.01,2.88 0.11,5.73 0.34,8.55 0.97,12.24 4.02,23.9 8.8,34.62 4.49,10.09 10.51,19.36 17.76,27.5 6.48,7.28 13.95,13.67 22.2,18.94 7.12,4.55 14.81,8.28 22.95,11.04 6.87,2.33 14.06,3.99 21.48,4.88 4.18,0.5 8.43,0.76 12.75,0.75 2.18,0 4.33,-0.13 6.44,-0.38 5.96,-0.72 11.62,-2.43 16.8,-4.96 4.81,-2.34 9.21,-5.39 13.07,-9.01 3.4,-3.18 6.39,-6.81 8.86,-10.79 2.11,-3.4 3.85,-7.05 5.16,-10.9 1.1,-3.23 1.89,-6.61 2.35,-10.09 0.3,-2.3 0.46,-4.64 0.46,-7.02 0,-0.67 -0.02,-1.33 -0.07,-1.98 -0.21,-2.81 -0.85,-5.49 -1.86,-7.99 -0.95,-2.35 -2.22,-4.53 -3.77,-6.48 -1.39,-1.77 -3.01,-3.35 -4.8,-4.72zm0 22.39c0.25,-1.97 0.28,-3.98 0.08,-5.97 -1.02,1.43 -2.2,2.77 -3.53,3.99 -0.39,1.75 -0.96,3.44 -1.69,5.04 -0.83,1.83 -1.86,3.55 -3.06,5.14 -1.37,1.79 -2.95,3.4 -4.71,4.8 -1.96,1.54 -4.14,2.82 -6.48,3.77 -2.5,1.01 -5.18,1.66 -7.99,1.86 -0.66,0.05 -1.32,0.07 -1.98,0.08 -2.38,-0 -4.72,-0.16 -7.02,-0.46 -3.48,-0.46 -6.86,-1.26 -10.09,-2.36 -3.85,-1.31 -7.5,-3.04 -10.9,-5.15 -3.98,-2.47 -7.61,-5.45 -10.79,-8.86 -3.62,-3.86 -6.66,-8.26 -9,-13.07 -2.53,-5.19 -4.24,-10.85 -4.96,-16.81 -0.25,-2.11 -0.39,-4.26 -0.39,-6.44 0,-4.31 0.26,-8.57 0.75,-12.75 0.89,-7.42 2.55,-14.61 4.88,-21.48 2.77,-8.14 6.49,-15.83 11.04,-22.95 5.28,-8.25 11.66,-15.72 18.93,-22.21 8.14,-7.25 17.41,-13.27 27.5,-17.76 10.72,-4.77 22.37,-7.82 34.62,-8.8 2.82,-0.23 5.68,-0.34 8.56,-0.34 10.31,0 20.45,0.73 30.37,2.15 14.89,2.13 29.27,5.8 42.99,10.85 16.08,5.91 31.25,13.71 45.24,23.13 16.08,10.83 30.6,23.8 43.14,38.5 13.96,16.34 25.48,34.84 34,54.9 9.03,21.25 14.69,44.27 16.33,68.39 0.33,4.84 0.5,9.72 0.5,14.64 0,21.07 -1.53,41.78 -4.49,62.02 -4.29,29.31 -11.56,57.64 -21.5,84.68 -11.67,31.74 -27.01,61.69 -45.51,89.36 -21.32,31.87 -46.84,60.7 -75.76,85.7 -32.28,27.9 -68.8,51.03 -108.47,68.28 -42.16,18.33 -87.86,30.04 -135.81,33.78 -11.08,0.87 -22.28,1.31 -33.59,1.31 -40.46,0 -80.25,-2.83 -119.2,-8.29 -58.58,-8.22 -115.24,-22.41 -169.35,-41.93 -63.66,-22.96 -123.79,-53.3 -179.35,-90 -64.17,-42.37 -122.25,-93.21 -172.67,-150.91 -56.34,-64.5 -103.1,-137.58 -138.06,-217.03 -37.18,-84.51 -61.01,-176.22 -68.81,-272.46 -1.86,-22.97 -2.81,-46.2 -2.81,-69.64 0,-80.47 5.59,-159.63 16.4,-237.13 16.41,-117.61 44.85,-231.37 84.03,-339.99 46.08,-127.75 107.03,-248.39 180.75,-359.84 85.08,-128.61 187.16,-244.98 303.05,-345.91 129.41,-112.7 276.03,-206.14 435.41,-275.85 169.36,-74.08 353.11,-121.37 545.9,-136.51 44.52,-3.5 89.53,-5.28 134.96,-5.28 162.62,0 322.58,11.41 479.11,33.48 235.26,33.17 462.78,90.41 680,169.15 255.3,92.54 496.36,214.78 719.02,362.54 256.81,170.42 489.14,374.8 690.57,606.72 224.85,258.88 411.22,552.09 550.19,870.72 147.65,338.52 241.79,705.74 271.76,1090.96 6.87,88.25 10.36,177.45 10.36,267.45 0,325.69 -22.89,646.03 -67.15,959.49 -66.37,470.06 -180.78,924.67 -338.11,1358.72 -184.92,510.16 -429.14,991.91 -724.32,1436.92 -340.51,513.34 -748.84,977.79 -1212.21,1380.56 -517.35,449.69 -1103.31,822.51 -1740.09,1100.65 676.71,295.58 1410.8,484.25 2180.94,544.65 636.76,-437.38 1178.18,-967.81 1616.43,-1562.15 412.4,-559.27 733.45,-1175.11 956.64,-1823.24 199.9,-580.5 321.31,-1186.89 359.53,-1801.71 33.13,-532.98 3.75,-1072.29 -91.18,-1606.56 -80.77,-454.56 -208.99,-905.48 -386.55,-1345.74 -118.41,-293.6 -258.76,-582.47 -421.6,-864.52 -45.01,-77.95 -92.63,-153.45 -142.7,-226.44 -218.56,-318.63 -483.7,-589.57 -780.83,-808.92 -279.66,-206.45 -587.67,-367.2 -911.84,-478.97 -290.41,-100.13 -593.79,-160.96 -901.41,-180.15 -266.7,-16.63 -536.59,-1.97 -803.95,45.54 -227.49,40.42 -453.15,104.61 -673.48,193.52 -146.59,59.15 -290.83,129.24 -431.66,210.55 -39.34,22.71 -77.43,46.76 -114.24,72.05 -159.39,109.5 -294.88,242.33 -404.51,391.17 -103.16,140.06 -183.43,294.29 -239.15,456.6 -49.9,145.35 -80.12,297.18 -89.5,451.09 -8.12,133.39 -0.58,268.34 23.39,402.02 20.38,113.66 52.63,226.4 97.22,336.45 29.38,72.52 64.13,143.87 104.36,213.56 11.73,20.3 24.16,39.94 37.26,58.9 54.87,79.44 121.37,146.95 195.82,201.56 70,51.32 147.04,91.23 228.08,118.92 72.51,24.78 148.24,39.75 224.99,44.36 66.48,3.99 133.72,0.21 200.32,-11.74 56.62,-10.15 112.79,-26.19 167.62,-48.36 36.46,-14.75 72.34,-32.2 107.38,-52.43 9.79,-5.65 19.27,-11.63 28.43,-17.92 39.65,-27.21 73.38,-60.2 100.73,-97.16 25.73,-34.77 45.79,-73.06 59.8,-113.36 12.55,-36.11 20.23,-73.84 22.77,-112.11 2.19,-33.21 0.5,-66.82 -5.26,-100.14 -4.91,-28.39 -12.78,-56.57 -23.72,-84.09 -7.56,-19.02 -16.59,-37.72 -27.12,-55.96 -2.46,-4.26 -5.05,-8.41 -7.75,-12.43 -13.49,-20.07 -29.9,-37.17 -48.34,-51.06 -17.42,-13.12 -36.64,-23.37 -56.9,-30.55 -18.21,-6.46 -37.27,-10.42 -56.61,-11.77 -16.83,-1.16 -33.86,-0.34 -50.74,2.58 -14.41,2.49 -28.71,6.5 -42.66,12.1 -9.3,3.73 -18.45,8.16 -27.38,13.32 -2.49,1.43 -4.91,2.96 -7.23,4.57 -10.11,6.96 -18.69,15.43 -25.58,24.93 -6.5,8.93 -11.51,18.78 -14.93,29.13 -3.07,9.26 -4.86,18.92 -5.3,28.7 -0.39,8.44 0.24,16.97 1.91,25.4 1.41,7.12 3.57,14.17 6.52,21.04 1.66,3.87 3.56,7.68 5.72,11.42 1.09,1.89 2.28,3.69 3.55,5.39 3.6,4.81 7.91,8.85 12.7,12.08 4.43,2.99 9.27,5.28 14.33,6.81 4.46,1.36 9.09,2.13 13.78,2.28 4,0.13 8.03,-0.19 12.01,-0.98 3.35,-0.66 6.67,-1.66 9.91,-3 2.14,-0.89 4.25,-1.92 6.31,-3.11 0.58,-0.33 1.14,-0.68 1.68,-1.05 2.33,-1.58 4.33,-3.48 5.99,-5.61 1.56,-1.99 2.81,-4.19 3.73,-6.5 0.84,-2.09 1.4,-4.28 1.69,-6.51zm-19.39 11.2c1.83,-0.77 3.58,-1.74 5.21,-2.92 -1.75,-0.17 -3.5,-0.52 -5.22,-1.06 -1.71,0.54 -3.46,0.89 -5.21,1.06 -2,0.2 -4,0.17 -5.98,-0.08 -2.23,-0.29 -4.42,-0.85 -6.51,-1.68 -2.32,-0.92 -4.51,-2.17 -6.5,-3.73 -2.13,-1.66 -4.03,-3.66 -5.61,-5.99 -0.37,-0.55 -0.72,-1.11 -1.06,-1.68 -1.19,-2.06 -2.22,-4.17 -3.11,-6.31 -1.35,-3.24 -2.34,-6.57 -3,-9.91 -0.79,-3.99 -1.12,-8.02 -0.99,-12.01 0.15,-4.68 0.92,-9.32 2.28,-13.78 1.53,-5.06 3.82,-9.9 6.82,-14.33 3.23,-4.79 7.27,-9.09 12.08,-12.7 1.7,-1.27 3.5,-2.47 5.39,-3.56 3.73,-2.15 7.55,-4.06 11.41,-5.72 6.87,-2.94 13.92,-5.1 21.04,-6.52 8.43,-1.67 16.96,-2.3 25.4,-1.91 9.78,0.45 19.44,2.24 28.7,5.3 10.35,3.43 20.2,8.44 29.13,14.94 9.49,6.9 17.96,15.47 24.92,25.58 1.61,2.33 3.13,4.74 4.57,7.24 5.16,8.93 9.59,18.08 13.32,27.38 5.6,13.96 9.61,28.25 12.1,42.66 2.92,16.88 3.75,33.92 2.59,50.74 -1.34,19.34 -5.31,38.39 -11.77,56.61 -7.18,20.26 -17.43,39.48 -30.55,56.9 -13.89,18.44 -30.99,34.86 -51.06,48.34 -4.02,2.7 -8.17,5.29 -12.43,7.75 -18.25,10.54 -36.94,19.56 -55.96,27.12 -27.53,10.94 -55.7,18.81 -84.09,23.72 -33.32,5.76 -66.93,7.45 -100.14,5.26 -38.26,-2.53 -75.99,-10.21 -112.1,-22.76 -40.3,-14 -78.59,-34.07 -113.36,-59.8 -36.96,-27.34 -69.94,-61.07 -97.16,-100.72 -6.29,-9.16 -12.27,-18.64 -17.93,-28.43 -20.23,-35.04 -37.68,-70.92 -52.42,-107.38 -22.17,-54.84 -38.21,-111 -48.37,-167.62 -11.94,-66.61 -15.73,-133.85 -11.74,-200.32 4.61,-76.76 19.6,-152.48 44.36,-224.99 27.69,-81.04 67.6,-158.08 118.93,-228.08 54.59,-74.45 122.11,-140.95 201.55,-195.82 18.96,-13.09 38.6,-25.53 58.9,-37.25 69.69,-40.23 141.04,-74.97 213.55,-104.36 110.06,-44.6 222.8,-76.85 336.46,-97.22 133.67,-23.97 268.62,-31.5 402.01,-23.39 153.92,9.37 305.74,39.6 451.1,89.5 162.3,55.72 316.54,135.98 456.6,239.15 148.83,109.63 281.67,245.12 391.17,404.51 25.29,36.81 49.34,74.9 72.05,114.24 81.31,140.84 151.41,285.07 210.56,431.67 88.91,220.32 153.09,445.98 193.52,673.48 47.5,267.36 62.18,537.25 45.54,803.96 -19.18,307.62 -80.02,611 -180.15,901.41 -111.77,324.17 -272.52,632.17 -478.97,911.84 -219.35,297.13 -490.29,562.27 -808.92,780.83 -72.99,50.07 -148.49,97.7 -226.44,142.7 -282.05,162.84 -570.92,303.19 -864.52,421.6 -440.26,177.55 -891.17,305.78 -1345.74,386.55 -534.27,94.94 -1073.59,124.31 -1606.57,91.18 -614.82,-38.22 -1221.21,-159.62 -1801.71,-359.52 -648.12,-223.19 -1263.97,-544.24 -1823.23,-956.64 82.37,733.84 286.03,1463.92 618.79,2161.08 697.16,332.76 1427.24,536.42 2161.07,618.79 690.54,77.51 1384.4,47.63 2057.29,-83.15 602.68,-117.12 1188.53,-315.18 1740.09,-589.5 478.14,-237.79 930.51,-532.89 1345.73,-882.24 353.28,-297.23 679.67,-633.73 972.17,-1007.63 195.07,-249.34 375.05,-515.32 537.9,-797.37 45,-77.95 86.57,-156.94 124.75,-236.8 166.66,-348.59 268.73,-713.68 310.13,-1080.68 38.96,-345.42 24.17,-692.53 -41.12,-1029.16 -58.48,-301.57 -157.5,-594.72 -294.69,-870.72 -118.95,-239.29 -266.59,-465.68 -441.42,-673.48 -148.75,-176.8 -317.17,-340.13 -504.33,-486.49 -124.52,-97.38 -257.34,-187.24 -398.17,-268.55 -39.34,-22.71 -79.21,-43.67 -119.52,-62.91 -174.53,-83.29 -357.31,-134.21 -541.02,-154.73 -172.87,-19.32 -346.58,-11.71 -515,21.19 -150.83,29.46 -297.42,79.2 -435.41,148.04 -119.57,59.66 -232.67,133.67 -336.46,221.26 -88.25,74.47 -169.75,158.77 -242.77,252.42 -48.11,61.71 -92.53,127.47 -132.77,197.16 -11.72,20.31 -22.51,40.89 -32.38,61.71 -41.36,87.25 -66.58,178.59 -76.64,270.37 -9.45,86.28 -5.49,172.95 11.05,256.98 14.8,75.18 39.69,148.25 74.08,217.03 29.78,59.56 66.68,115.9 110.33,167.62 37.1,43.96 79.08,84.58 125.7,120.98 31,24.2 64.05,46.55 99.09,66.78 9.79,5.65 19.71,10.87 29.74,15.66 43.39,20.73 88.83,33.45 134.5,38.65 42.98,4.89 86.17,3.13 128.07,-4.89 37.55,-7.19 74.06,-19.4 108.47,-36.34 29.85,-14.71 58.12,-32.98 84.09,-54.63 22.13,-18.45 42.6,-39.35 60.96,-62.58 12.69,-16.05 24.37,-33.23 34.91,-51.47 2.46,-4.26 4.76,-8.58 6.89,-12.93 10.64,-21.71 17.24,-44.48 20.05,-67.39 2.65,-21.64 1.92,-43.42 -1.99,-64.55 -3.52,-19 -9.61,-37.49 -18.11,-54.91 -7.41,-15.15 -16.64,-29.49 -27.61,-42.65 -9.36,-11.23 -19.99,-21.61 -31.81,-30.89 -7.88,-6.19 -16.3,-11.9 -25.23,-17.05 -2.49,-1.44 -5.02,-2.77 -7.57,-3.98 -11.08,-5.28 -22.71,-8.47 -34.38,-9.69 -10.98,-1.16 -22.02,-0.58 -32.69,1.63 -9.55,1.97 -18.81,5.25 -27.5,9.76 -7.5,3.89 -14.58,8.69 -21.04,14.36 -5.46,4.78 -10.48,10.18 -14.96,16.16 -2.52,3.38 -4.87,6.92 -7.03,10.67 -1.09,1.89 -2.05,3.81 -2.89,5.77 -2.36,5.53 -3.71,11.28 -4.11,17.03 -0.38,5.33 0.06,10.67 1.26,15.82 1.06,4.54 2.71,8.94 4.92,13.07 1.89,3.52 4.18,6.86 6.86,9.91 2.25,2.57 4.77,4.94 7.56,7.08 1.84,1.41 3.79,2.72 5.85,3.91 0.58,0.33 1.16,0.64 1.75,0.93 2.53,1.22 5.18,2.01 7.85,2.38 2.51,0.35 5.03,0.34 7.5,-0.02 2.23,-0.32 4.41,-0.93 6.48,-1.8zm-19.39 -11.2c1.58,1.2 3.3,2.23 5.13,3.06 -0.73,-1.6 -1.29,-3.29 -1.69,-5.05 -1.32,-1.22 -2.5,-2.55 -3.52,-3.98 -1.17,-1.64 -2.15,-3.39 -2.92,-5.22 -0.87,-2.07 -1.47,-4.25 -1.8,-6.48 -0.36,-2.47 -0.37,-4.99 -0.02,-7.5 0.37,-2.67 1.16,-5.32 2.38,-7.85 0.29,-0.6 0.6,-1.18 0.93,-1.76 1.19,-2.06 2.5,-4.01 3.91,-5.85 2.13,-2.78 4.52,-5.31 7.08,-7.56 3.06,-2.68 6.38,-4.97 9.91,-6.86 4.13,-2.21 8.53,-3.86 13.07,-4.92 5.15,-1.2 10.48,-1.64 15.82,-1.26 5.76,0.4 11.51,1.75 17.03,4.11 1.95,0.84 3.88,1.8 5.78,2.89 3.73,2.16 7.29,4.51 10.66,7.03 5.99,4.48 11.38,9.51 16.16,14.96 5.66,6.46 10.47,13.54 14.36,21.04 4.5,8.7 7.79,17.96 9.76,27.5 2.21,10.68 2.79,21.71 1.63,32.7 -1.23,11.67 -4.41,23.29 -9.69,34.38 -1.22,2.56 -2.54,5.08 -3.98,7.58 -5.16,8.93 -10.86,17.35 -17.05,25.23 -9.29,11.83 -19.66,22.45 -30.89,31.81 -13.16,10.97 -27.5,20.21 -42.65,27.61 -17.42,8.51 -35.9,14.6 -54.91,18.11 -21.13,3.92 -42.91,4.64 -64.55,1.99 -22.91,-2.81 -45.69,-9.41 -67.4,-20.05 -4.35,-2.13 -8.66,-4.43 -12.93,-6.89 -18.25,-10.53 -35.41,-22.21 -51.47,-34.9 -23.24,-18.37 -44.14,-38.83 -62.59,-60.97 -21.65,-25.98 -39.92,-54.24 -54.63,-84.09 -16.94,-34.4 -29.15,-70.92 -36.34,-108.46 -8.02,-41.91 -9.79,-85.1 -4.89,-128.07 5.2,-45.67 17.92,-91.11 38.65,-134.5 4.79,-10.03 10.01,-19.95 15.66,-29.74 20.23,-35.04 42.58,-68.09 66.78,-99.09 36.41,-46.62 77.02,-88.6 120.98,-125.7 51.72,-43.65 108.06,-80.55 167.62,-110.33 68.78,-34.39 141.85,-59.27 217.03,-74.08 84.03,-16.54 170.7,-20.5 256.99,-11.05 91.77,10.05 183.12,35.28 270.36,76.64 20.82,9.87 41.41,20.66 61.71,32.38 69.69,40.24 135.45,84.66 197.15,132.77 93.65,73.02 177.95,154.52 252.43,242.77 87.59,103.78 161.59,216.89 221.26,336.46 68.84,137.98 118.58,284.58 148.04,435.41 32.89,168.42 40.5,342.12 21.19,515 -20.53,183.71 -71.45,366.49 -154.73,541.02 -19.24,40.31 -40.2,80.18 -62.91,119.51 -81.31,140.84 -171.17,273.65 -268.55,398.18 -146.35,187.15 -309.69,355.57 -486.49,504.33 -207.79,174.82 -434.18,322.47 -673.48,441.42 -275.99,137.2 -569.15,236.21 -870.72,294.7 -336.62,65.29 -683.73,80.08 -1029.16,41.12 -366.99,-41.39 -732.08,-143.47 -1080.68,-310.13 -79.86,-38.18 -158.85,-79.75 -236.8,-124.75 -282.05,-162.84 -548.03,-342.84 -797.37,-537.9 -373.9,-292.5 -710.4,-618.89 -1007.63,-972.17 -349.35,-415.23 -644.45,-867.6 -882.25,-1345.74 -274.31,-551.56 -472.37,-1137.41 -589.5,-1740.09 -130.77,-672.89 -160.65,-1366.75 -83.14,-2057.29 -594.34,438.25 -1124.78,979.67 -1562.15,1616.43 60.4,770.14 249.06,1504.24 544.65,2180.94 278.14,636.78 650.95,1222.74 1100.65,1740.09 402.77,463.37 867.22,871.7 1380.56,1212.21 445.01,295.18 926.75,539.4 1436.91,724.32 434.05,157.33 888.66,271.74 1358.72,338.11 313.47,44.26 633.81,67.15 959.49,67.15 90.01,0 179.21,-3.5 267.45,-10.36 385.22,-29.96 752.44,-124.11 1090.96,-271.76 318.62,-138.97 611.83,-325.33 870.72,-550.19 231.92,-201.44 436.29,-433.76 606.72,-690.57 147.76,-222.65 270,-463.72 362.54,-719.02 78.74,-217.22 135.98,-444.75 169.15,-680.01 22.07,-156.53 33.49,-316.49 33.49,-479.1 0,-45.43 -1.78,-90.43 -5.28,-134.96 -15.14,-192.79 -62.43,-376.54 -136.51,-545.9 -69.71,-159.37 -163.15,-306 -275.85,-435.41 -100.93,-115.9 -217.3,-217.98 -345.91,-303.06 -111.45,-73.72 -232.09,-134.67 -359.85,-180.75 -108.62,-39.18 -222.38,-67.62 -339.99,-84.03 -77.49,-10.81 -156.66,-16.4 -237.13,-16.4 -23.45,0 -46.67,0.95 -69.64,2.81 -96.24,7.8 -187.95,31.63 -272.46,68.82 -79.45,34.96 -152.53,81.72 -217.03,138.06 -57.71,50.41 -108.54,108.5 -150.91,172.66 -36.69,55.57 -67.03,115.7 -90,179.35 -19.52,54.11 -33.71,110.77 -41.93,169.35 -5.46,38.95 -8.29,78.75 -8.29,119.2 0,11.3 0.44,22.5 1.31,33.58 3.75,47.94 15.44,93.65 33.78,135.81 17.25,39.67 40.37,76.19 68.28,108.47 25,28.92 53.83,54.44 85.7,75.77 27.67,18.5 57.62,33.84 89.35,45.51 27.04,9.94 55.38,17.21 84.68,21.5 20.25,2.96 40.96,4.49 62.03,4.49 4.92,0 9.8,-0.17 14.64,-0.5 24.12,-1.64 47.14,-7.31 68.39,-16.33 20.07,-8.52 38.56,-20.05 54.91,-34 14.7,-12.55 27.66,-27.06 38.49,-43.14 9.42,-13.99 17.22,-29.15 23.14,-45.23 5.05,-13.72 8.72,-28.11 10.84,-42.99 1.42,-9.92 2.15,-20.06 2.15,-30.37 0,-2.88 -0.11,-5.73 -0.34,-8.55 -0.97,-12.24 -4.02,-23.9 -8.8,-34.62 -4.49,-10.09 -10.51,-19.36 -17.76,-27.5 -6.48,-7.28 -13.96,-13.67 -22.2,-18.94 -7.12,-4.55 -14.81,-8.28 -22.95,-11.04 -6.87,-2.34 -14.06,-3.99 -21.48,-4.88 -4.18,-0.5 -8.43,-0.76 -12.75,-0.75 -2.18,0 -4.33,0.13 -6.44,0.38 -5.96,0.72 -11.62,2.43 -16.8,4.96 -4.81,2.34 -9.21,5.39 -13.07,9 -3.4,3.19 -6.39,6.82 -8.86,10.79 -2.11,3.4 -3.85,7.05 -5.16,10.9 -1.1,3.23 -1.89,6.61 -2.35,10.09 -0.3,2.3 -0.46,4.64 -0.46,7.02 0,0.67 0.02,1.33 0.07,1.98 0.21,2.81 0.85,5.49 1.86,7.99 0.95,2.35 2.22,4.53 3.77,6.48 1.39,1.77 3.01,3.35 4.8,4.72z"/>
 </g>
</svg>
