<?xml version="1.0" encoding="UTF-8"?>
<!DOCTYPE svg PUBLIC "-//W3C//DTD SVG 1.1//EN" "http://www.w3.org/Graphics/SVG/1.1/DTD/svg11.dtd">
<!-- Creator: CorelDRAW 2021 (64 Bit) -->
<svg xmlns="http://www.w3.org/2000/svg" xml:space="preserve" width="404.159mm" height="404.159mm" version="1.1" style="shape-rendering:geometricPrecision; text-rendering:geometricPrecision; image-rendering:optimizeQuality; fill-rule:evenodd; clip-rule:evenodd"
viewBox="0 0 8742.91 8742.91"
 xmlns:xlink="http://www.w3.org/1999/xlink"
 xmlns:xodm="http://www.corel.com/coreldraw/odm/2003">
 <defs>
  <style type="text/css">
   <![CDATA[
    .fil0 {fill:#373435}
   ]]>
  </style>
 </defs>
 <g id="Camada_x0020_1">
  <metadata id="CorelCorpID_0Corel-Layer"/>
  <path class="fil0" d="M4381.87 4365.44c0.13,1.06 0.15,2.14 0.04,3.21 -0.55,-0.77 -1.18,-1.49 -1.89,-2.14 -0.21,-0.94 -0.52,-1.85 -0.91,-2.71 -0.45,-0.98 -1,-1.91 -1.64,-2.76 -0.73,-0.96 -1.58,-1.83 -2.53,-2.58 -1.05,-0.83 -2.22,-1.51 -3.48,-2.02 -1.34,-0.54 -2.78,-0.89 -4.29,-1 -0.35,-0.03 -0.71,-0.04 -1.06,-0.04 -1.28,0 -2.54,0.08 -3.77,0.25 -1.87,0.25 -3.68,0.67 -5.42,1.27 -2.07,0.7 -4.03,1.63 -5.85,2.77 -2.14,1.33 -4.09,2.93 -5.8,4.76 -1.94,2.07 -3.58,4.44 -4.83,7.02 -1.36,2.79 -2.28,5.83 -2.66,9.03 -0.14,1.13 -0.21,2.29 -0.21,3.46 0,2.32 0.14,4.6 0.41,6.85 0.48,3.99 1.36,7.85 2.62,11.54 1.49,4.37 3.49,8.5 5.93,12.33 2.83,4.43 6.26,8.44 10.17,11.93 4.37,3.9 9.35,7.13 14.77,9.54 5.76,2.56 12.02,4.2 18.59,4.72 1.52,0.12 3.05,0.18 4.59,0.18 5.54,0 10.98,-0.39 16.31,-1.16 8,-1.14 15.72,-3.12 23.09,-5.83 8.64,-3.18 16.78,-7.37 24.3,-12.43 8.63,-5.81 16.43,-12.78 23.17,-20.67 7.5,-8.78 13.68,-18.71 18.26,-29.49 4.85,-11.41 7.89,-23.78 8.77,-36.73 0.18,-2.6 0.27,-5.22 0.27,-7.86 0,-11.32 -0.82,-22.44 -2.41,-33.31 -2.3,-15.74 -6.21,-30.96 -11.55,-45.48 -6.27,-17.04 -14.51,-33.13 -24.44,-47.99 -11.45,-17.12 -25.15,-32.6 -40.69,-46.03 -17.34,-14.98 -36.95,-27.4 -58.25,-36.67 -22.64,-9.85 -47.19,-16.13 -72.94,-18.14 -5.95,-0.47 -11.97,-0.7 -18.04,-0.7 -21.73,0 -43.1,1.52 -64.02,4.45 -31.46,4.42 -61.89,12.03 -90.95,22.52 -34.19,12.33 -66.48,28.63 -96.33,48.34 -34.46,22.76 -65.66,50.06 -92.74,81.05 -30.26,34.64 -55.37,73.89 -74.15,116.56 -19.97,45.39 -32.77,94.64 -36.96,146.33 -1,12.33 -1.51,24.81 -1.51,37.4 0,43.22 3,85.74 8.81,127.35 8.81,63.17 24.09,124.26 45.13,182.6 24.75,68.61 57.48,133.4 97.08,193.26 45.69,69.07 100.52,131.57 162.76,185.78 69.5,60.53 148.25,110.71 233.85,148.15 90.96,39.79 189.65,65.18 293.19,73.31 23.91,1.88 48.09,2.83 72.48,2.83 87.34,0 173.25,-6.13 257.32,-17.98 126.35,-17.81 248.55,-48.56 365.21,-90.85 137.11,-49.7 266.58,-115.35 386.17,-194.71 137.93,-91.53 262.7,-201.29 370.89,-325.85 120.76,-139.04 220.85,-296.51 295.49,-467.64 79.3,-181.81 129.86,-379.03 145.96,-585.93 3.69,-47.4 5.57,-95.3 5.57,-143.64 0,-174.92 -12.29,-346.96 -36.06,-515.32 -35.64,-252.46 -97.09,-496.62 -181.59,-729.73 -99.32,-274 -230.48,-532.73 -389.01,-771.73 -182.88,-275.7 -402.18,-525.14 -651.05,-741.46 -277.86,-241.52 -592.56,-441.75 -934.56,-591.13 363.44,-158.75 757.71,-260.08 1171.33,-292.51 341.99,234.9 632.77,519.79 868.14,838.99 221.49,300.37 393.91,631.12 513.78,979.21 107.36,311.77 172.57,637.44 193.09,967.65 17.79,286.25 2.02,575.9 -48.97,862.84 -43.38,244.13 -112.24,486.31 -207.6,722.76 -63.59,157.69 -138.97,312.83 -226.43,464.31 -24.17,41.87 -49.75,82.41 -76.64,121.61 -117.38,171.13 -259.79,316.64 -419.36,434.45 -150.2,110.88 -315.62,197.21 -489.72,257.24 -155.97,53.78 -318.91,86.45 -484.12,96.75 -143.24,8.93 -288.19,1.06 -431.78,-24.46 -122.18,-21.71 -243.38,-56.18 -361.71,-103.93 -78.73,-31.77 -156.2,-69.41 -231.83,-113.08 -21.13,-12.2 -41.58,-25.11 -61.36,-38.7 -85.61,-58.81 -158.37,-130.15 -217.25,-210.09 -55.41,-75.22 -98.51,-158.06 -128.44,-245.23 -26.8,-78.06 -43.03,-159.61 -48.07,-242.27 -4.36,-71.64 -0.31,-144.11 12.56,-215.91 10.94,-61.04 28.26,-121.59 52.21,-180.7 15.78,-38.95 34.44,-77.27 56.05,-114.7 6.3,-10.9 12.98,-21.45 20.01,-31.64 29.47,-42.67 65.18,-78.93 105.17,-108.25 37.59,-27.57 78.97,-49 122.5,-63.87 38.94,-13.3 79.61,-21.35 120.84,-23.83 35.7,-2.14 71.82,-0.11 107.59,6.3 30.41,5.45 60.57,14.07 90.03,25.98 19.58,7.92 38.85,17.29 57.67,28.15 5.26,3.04 10.35,6.25 15.27,9.63 21.29,14.62 39.41,32.33 54.1,52.18 13.82,18.68 24.59,39.24 32.12,60.88 6.74,19.39 10.87,39.66 12.22,60.21 1.18,17.84 0.27,35.89 -2.83,53.78 -2.64,15.25 -6.86,30.38 -12.74,45.16 -4.06,10.21 -8.91,20.26 -14.57,30.06 -1.32,2.29 -2.71,4.51 -4.16,6.68 -7.24,10.78 -16.06,19.96 -25.96,27.42 -9.35,7.05 -19.68,12.55 -30.56,16.41 -9.78,3.47 -20.02,5.6 -30.4,6.32 -9.04,0.63 -18.18,0.18 -27.25,-1.39 -7.74,-1.34 -15.42,-3.49 -22.91,-6.5 -4.99,-2 -9.91,-4.38 -14.71,-7.15 -1.34,-0.77 -2.63,-1.59 -3.89,-2.45 -5.43,-3.74 -10.04,-8.29 -13.74,-13.39 -3.49,-4.8 -6.18,-10.09 -8.02,-15.65 -1.64,-4.97 -2.61,-10.16 -2.84,-15.41 -0.21,-4.53 0.13,-9.11 1.03,-13.64 0.76,-3.82 1.92,-7.61 3.5,-11.3 0.89,-2.08 1.91,-4.13 3.07,-6.13 0.59,-1.01 1.22,-1.98 1.91,-2.89 1.94,-2.58 4.25,-4.75 6.82,-6.49 2.38,-1.61 4.98,-2.84 7.7,-3.66 2.39,-0.73 4.88,-1.14 7.4,-1.22 2.15,-0.07 4.31,0.1 6.45,0.53 1.8,0.36 3.58,0.89 5.32,1.61 1.15,0.48 2.28,1.03 3.39,1.67 0.31,0.18 0.61,0.37 0.9,0.56 1.25,0.85 2.33,1.87 3.22,3.01 0.84,1.07 1.51,2.25 2,3.49 0.45,1.12 0.75,2.3 0.9,3.5zm-10.42 -6.01c0.98,0.41 1.93,0.94 2.8,1.57 -0.94,0.09 -1.88,0.28 -2.8,0.57 -0.92,-0.29 -1.86,-0.48 -2.8,-0.57 -1.08,-0.11 -2.15,-0.09 -3.21,0.05 -1.2,0.16 -2.38,0.46 -3.5,0.9 -1.24,0.5 -2.42,1.17 -3.49,2 -1.14,0.89 -2.16,1.97 -3.01,3.21 -0.2,0.29 -0.39,0.59 -0.57,0.9 -0.64,1.11 -1.19,2.24 -1.67,3.39 -0.72,1.74 -1.26,3.53 -1.61,5.32 -0.43,2.14 -0.6,4.3 -0.53,6.45 0.08,2.52 0.49,5 1.22,7.4 0.82,2.72 2.05,5.32 3.66,7.69 1.73,2.57 3.91,4.88 6.49,6.82 0.91,0.68 1.88,1.32 2.89,1.91 2.01,1.16 4.05,2.18 6.13,3.07 3.69,1.58 7.48,2.74 11.3,3.5 4.53,0.9 9.11,1.24 13.64,1.03 5.25,-0.24 10.44,-1.2 15.41,-2.84 5.56,-1.84 10.85,-4.53 15.65,-8.02 5.1,-3.71 9.65,-8.31 13.39,-13.74 0.86,-1.25 1.68,-2.55 2.46,-3.89 2.77,-4.8 5.15,-9.71 7.15,-14.71 3.01,-7.5 5.16,-15.17 6.5,-22.91 1.57,-9.07 2.01,-18.22 1.39,-27.25 -0.72,-10.39 -2.85,-20.62 -6.32,-30.4 -3.85,-10.88 -9.36,-21.2 -16.41,-30.56 -7.46,-9.9 -16.65,-18.72 -27.43,-25.96 -2.16,-1.45 -4.39,-2.84 -6.68,-4.16 -9.8,-5.66 -19.84,-10.51 -30.05,-14.57 -14.78,-5.88 -29.92,-10.1 -45.16,-12.74 -17.89,-3.09 -35.95,-4 -53.78,-2.83 -20.55,1.36 -40.81,5.48 -60.2,12.22 -21.65,7.52 -42.21,18.3 -60.88,32.12 -19.85,14.68 -37.56,32.8 -52.18,54.09 -3.38,4.92 -6.59,10.01 -9.63,15.27 -10.86,18.82 -20.23,38.09 -28.15,57.67 -11.91,29.45 -20.52,59.62 -25.98,90.03 -6.41,35.77 -8.45,71.89 -6.3,107.59 2.48,41.22 10.52,81.89 23.83,120.84 14.87,43.52 36.31,84.9 63.87,122.5 29.32,39.99 65.58,75.7 108.25,105.17 10.18,7.03 20.73,13.71 31.64,20.01 37.43,21.61 75.75,40.27 114.69,56.05 59.11,23.95 119.66,41.27 180.7,52.22 71.79,12.87 144.27,16.92 215.91,12.56 82.67,-5.03 164.21,-21.27 242.27,-48.07 87.17,-29.93 170,-73.03 245.23,-128.44 79.93,-58.88 151.28,-131.65 210.09,-217.25 13.58,-19.77 26.5,-40.23 38.69,-61.35 43.67,-75.64 81.32,-153.1 113.09,-231.84 47.75,-118.33 82.22,-239.53 103.93,-361.71 25.51,-143.59 33.39,-288.54 24.46,-431.78 -10.3,-165.21 -42.97,-328.15 -96.75,-484.13 -60.03,-174.1 -146.36,-339.52 -257.24,-489.72 -117.81,-159.58 -263.32,-301.98 -434.45,-419.36 -39.2,-26.89 -79.75,-52.47 -121.61,-76.64 -151.48,-87.46 -306.63,-162.84 -464.31,-226.43 -236.45,-95.36 -478.63,-164.23 -722.76,-207.6 -286.94,-50.99 -576.6,-66.76 -862.85,-48.97 -330.2,20.53 -655.88,85.73 -967.65,193.09 -348.09,119.87 -678.84,292.3 -979.21,513.79 44.24,-394.12 153.62,-786.23 332.34,-1160.66 374.43,-178.72 766.53,-288.1 1160.66,-332.34 370.87,-41.63 743.53,-25.58 1104.92,44.65 323.68,62.9 638.33,169.28 934.56,316.6 256.8,127.71 499.75,286.2 722.76,473.83 189.74,159.64 365.03,340.36 522.13,541.17 104.77,133.92 201.43,276.76 288.89,428.25 24.17,41.87 46.5,84.29 67,127.18 89.51,187.22 144.33,383.3 166.56,580.4 20.92,185.52 12.98,371.94 -22.09,552.73 -31.41,161.96 -84.59,319.41 -158.27,467.64 -63.88,128.52 -143.18,250.11 -237.07,361.71 -79.89,94.96 -170.35,182.68 -270.86,261.28 -66.88,52.3 -138.21,100.56 -213.85,144.23 -21.13,12.2 -42.54,23.46 -64.19,33.79 -93.74,44.73 -191.9,72.08 -290.57,83.1 -92.85,10.37 -186.14,6.29 -276.59,-11.38 -81.01,-15.82 -159.74,-42.54 -233.85,-79.51 -64.22,-32.04 -124.96,-71.79 -180.71,-118.83 -47.39,-40 -91.17,-85.27 -130.38,-135.57 -25.84,-33.14 -49.7,-68.46 -71.31,-105.89 -6.3,-10.91 -12.09,-21.96 -17.39,-33.15 -22.21,-46.86 -35.76,-95.92 -41.16,-145.21 -5.07,-46.34 -2.95,-92.89 5.94,-138.02 7.95,-40.38 21.32,-79.62 39.78,-116.56 15.99,-31.99 35.81,-62.25 59.25,-90.02 19.93,-23.61 42.47,-45.43 67.51,-64.98 16.65,-13 34.4,-25 53.22,-35.86 5.26,-3.04 10.58,-5.84 15.97,-8.41 23.3,-11.13 47.71,-17.97 72.24,-20.76 23.08,-2.63 46.28,-1.68 68.78,2.63 20.17,3.86 39.78,10.42 58.26,19.52 16.03,7.9 31.21,17.71 45.16,29.34 11.89,9.91 22.88,21.13 32.74,33.61 6.81,8.62 13.09,17.85 18.75,27.64 1.32,2.29 2.55,4.61 3.7,6.94 5.71,11.66 9.26,23.89 10.77,36.2 1.43,11.62 1.03,23.32 -1.07,34.67 -1.89,10.21 -5.16,20.13 -9.73,29.49 -3.98,8.14 -8.94,15.84 -14.83,22.91 -5.03,6.03 -10.73,11.6 -17.09,16.59 -4.23,3.32 -8.75,6.39 -13.55,9.16 -1.33,0.77 -2.7,1.49 -4.07,2.14 -5.95,2.83 -12.2,4.55 -18.47,5.2 -5.9,0.63 -11.83,0.31 -17.56,-0.88 -5.13,-1.06 -10.1,-2.82 -14.77,-5.24 -4.03,-2.09 -7.83,-4.67 -11.3,-7.71 -2.93,-2.57 -5.63,-5.47 -8.04,-8.68 -1.35,-1.81 -2.62,-3.72 -3.77,-5.73 -0.59,-1.01 -1.1,-2.05 -1.55,-3.1 -1.27,-2.97 -1.99,-6.06 -2.21,-9.15 -0.2,-2.86 0.03,-5.73 0.68,-8.5 0.57,-2.44 1.45,-4.8 2.64,-7.02 1.01,-1.89 2.25,-3.68 3.68,-5.32 1.21,-1.38 2.56,-2.65 4.06,-3.8 0.99,-0.76 2.04,-1.46 3.14,-2.1 0.31,-0.18 0.62,-0.35 0.94,-0.5 1.36,-0.66 2.78,-1.08 4.22,-1.28 1.35,-0.19 2.7,-0.18 4.03,0.01 1.2,0.17 2.37,0.5 3.48,0.96zm-10.42 6.01c0.85,-0.64 1.77,-1.2 2.76,-1.64 -0.39,0.86 -0.7,1.77 -0.91,2.71 -0.71,0.65 -1.34,1.37 -1.89,2.14 -0.63,0.88 -1.15,1.82 -1.57,2.8 -0.47,1.12 -0.79,2.28 -0.96,3.48 -0.19,1.32 -0.2,2.68 -0.01,4.03 0.2,1.43 0.62,2.86 1.28,4.21 0.15,0.32 0.32,0.63 0.5,0.94 0.64,1.11 1.35,2.15 2.1,3.14 1.15,1.49 2.42,2.85 3.8,4.06 1.64,1.44 3.43,2.67 5.32,3.68 2.22,1.19 4.58,2.07 7.02,2.64 2.76,0.64 5.63,0.88 8.5,0.68 3.09,-0.22 6.18,-0.94 9.15,-2.21 1.05,-0.45 2.09,-0.96 3.1,-1.55 2.01,-1.16 3.92,-2.42 5.73,-3.77 3.21,-2.41 6.11,-5.11 8.68,-8.04 3.04,-3.47 5.62,-7.27 7.71,-11.3 2.42,-4.67 4.18,-9.64 5.24,-14.77 1.19,-5.74 1.5,-11.66 0.88,-17.56 -0.66,-6.27 -2.37,-12.51 -5.2,-18.46 -0.65,-1.37 -1.37,-2.73 -2.14,-4.07 -2.77,-4.8 -5.83,-9.32 -9.16,-13.55 -4.99,-6.35 -10.56,-12.06 -16.59,-17.08 -7.07,-5.89 -14.77,-10.85 -22.91,-14.83 -9.35,-4.57 -19.28,-7.84 -29.49,-9.73 -11.35,-2.1 -23.04,-2.49 -34.67,-1.07 -12.31,1.51 -24.54,5.05 -36.2,10.77 -2.34,1.15 -4.65,2.38 -6.94,3.7 -9.8,5.66 -19.02,11.93 -27.64,18.74 -12.48,9.86 -23.71,20.86 -33.61,32.74 -11.63,13.95 -21.44,29.13 -29.34,45.17 -9.1,18.47 -15.66,38.09 -19.52,58.25 -4.31,22.51 -5.26,45.7 -2.63,68.78 2.79,24.53 9.62,48.93 20.76,72.24 2.57,5.39 5.38,10.71 8.41,15.97 10.86,18.82 22.87,36.57 35.87,53.22 19.55,25.04 41.37,47.58 64.97,67.51 27.78,23.44 58.04,43.26 90.02,59.25 36.94,18.47 76.18,31.83 116.56,39.79 45.13,8.88 91.68,11.01 138.02,5.93 49.29,-5.4 98.35,-18.95 145.2,-41.16 11.18,-5.3 22.24,-11.1 33.15,-17.39 37.43,-21.61 72.75,-45.47 105.89,-71.31 50.3,-39.22 95.57,-82.99 135.57,-130.38 47.04,-55.74 86.79,-116.48 118.83,-180.7 36.97,-74.11 63.69,-152.84 79.51,-233.85 17.66,-90.46 21.75,-183.75 11.38,-276.59 -11.02,-98.67 -38.37,-196.83 -83.1,-290.57 -10.33,-21.65 -21.59,-43.06 -33.79,-64.19 -43.67,-75.64 -91.93,-146.97 -144.23,-213.85 -78.6,-100.51 -166.32,-190.97 -261.28,-270.86 -111.6,-93.89 -233.19,-173.19 -361.71,-237.07 -148.23,-73.68 -305.68,-126.86 -467.64,-158.27 -180.79,-35.06 -367.22,-43.01 -552.73,-22.08 -197.1,22.23 -393.18,77.05 -580.4,166.56 -42.89,20.5 -85.32,42.83 -127.18,67 -151.48,87.46 -294.33,184.13 -428.25,288.89 -200.81,157.1 -381.54,332.39 -541.17,522.13 -187.63,223.01 -346.12,465.97 -473.83,722.76 -147.32,296.23 -253.7,610.87 -316.6,934.55 -70.23,361.39 -86.28,734.05 -44.65,1104.92 -319.2,-235.38 -604.09,-526.15 -838.99,-868.14 32.44,-413.62 133.76,-807.89 292.51,-1171.32 149.38,-342 349.61,-656.7 591.13,-934.56 216.32,-248.87 465.76,-468.17 741.46,-651.05 239,-158.54 497.73,-289.7 771.73,-389.01 233.12,-84.5 477.28,-145.95 729.73,-181.59 168.36,-23.77 340.4,-36.06 515.32,-36.06 48.34,0 96.25,1.88 143.64,5.57 206.89,16.09 404.11,66.66 585.93,145.96 171.12,74.64 328.6,174.73 467.64,295.49 124.56,108.19 234.32,232.96 325.85,370.89 79.36,119.58 145.01,249.05 194.71,386.17 42.29,116.66 73.03,238.86 90.85,365.21 11.85,84.07 17.99,169.98 17.99,257.31 0,24.4 -0.96,48.57 -2.83,72.48 -8.13,103.54 -33.53,202.23 -73.32,293.19 -37.44,85.59 -87.62,164.34 -148.15,233.85 -54.2,62.24 -116.71,117.07 -185.78,162.76 -59.86,39.6 -124.65,72.33 -193.27,97.08 -58.34,21.04 -119.43,36.32 -182.6,45.13 -41.62,5.81 -84.14,8.81 -127.35,8.81 -12.59,-0 -25.07,-0.51 -37.4,-1.51 -51.69,-4.19 -100.94,-16.99 -146.33,-36.96 -42.67,-18.78 -81.92,-43.89 -116.56,-74.15 -30.99,-27.07 -58.29,-58.27 -81.05,-92.73 -19.71,-29.85 -36,-62.14 -48.34,-96.33 -10.48,-29.06 -18.1,-59.49 -22.52,-90.95 -2.93,-20.92 -4.45,-42.29 -4.45,-64.02 0,-6.07 0.24,-12.08 0.7,-18.04 2.01,-25.75 8.29,-50.3 18.14,-72.94 9.27,-21.3 21.68,-40.92 36.67,-58.25 13.43,-15.53 28.91,-29.24 46.03,-40.69 14.86,-9.94 30.95,-18.18 47.99,-24.44 14.52,-5.34 29.74,-9.25 45.48,-11.55 10.87,-1.59 22,-2.41 33.31,-2.41 2.64,0 5.27,0.09 7.86,0.27 12.96,0.88 25.32,3.92 36.73,8.77 10.78,4.58 20.71,10.77 29.49,18.26 7.89,6.74 14.86,14.53 20.67,23.17 5.06,7.51 9.25,15.66 12.42,24.29 2.71,7.37 4.68,15.1 5.83,23.09 0.76,5.33 1.16,10.78 1.16,16.31 0,1.54 -0.06,3.08 -0.18,4.59 -0.52,6.57 -2.16,12.84 -4.72,18.6 -2.41,5.42 -5.64,10.4 -9.54,14.77 -3.48,3.91 -7.49,7.34 -11.92,10.17 -3.82,2.44 -7.96,4.45 -12.33,5.93 -3.69,1.25 -7.55,2.14 -11.54,2.62 -2.25,0.27 -4.53,0.41 -6.85,0.4 -1.17,0 -2.33,-0.07 -3.46,-0.21 -3.2,-0.39 -6.24,-1.3 -9.03,-2.66 -2.58,-1.26 -4.95,-2.89 -7.02,-4.84 -1.83,-1.71 -3.43,-3.66 -4.76,-5.8 -1.13,-1.82 -2.07,-3.79 -2.77,-5.85 -0.59,-1.74 -1.02,-3.55 -1.26,-5.42 -0.16,-1.24 -0.25,-2.49 -0.25,-3.77 0,-0.36 0.01,-0.71 0.04,-1.06 0.11,-1.51 0.45,-2.95 1,-4.29 0.51,-1.26 1.19,-2.43 2.02,-3.48 0.75,-0.95 1.62,-1.8 2.58,-2.53zm0 12.03c-0.13,-1.06 -0.15,-2.14 -0.04,-3.21 0.55,0.77 1.18,1.49 1.89,2.14 0.21,0.94 0.52,1.85 0.91,2.71 0.45,0.98 1,1.91 1.64,2.76 0.73,0.96 1.58,1.83 2.53,2.58 1.05,0.83 2.22,1.51 3.48,2.02 1.34,0.54 2.78,0.89 4.29,1 0.35,0.03 0.71,0.04 1.06,0.04 1.28,-0 2.54,-0.09 3.77,-0.25 1.87,-0.25 3.68,-0.67 5.42,-1.27 2.07,-0.7 4.03,-1.63 5.85,-2.77 2.14,-1.33 4.09,-2.93 5.8,-4.76 1.94,-2.07 3.58,-4.44 4.83,-7.02 1.36,-2.79 2.28,-5.83 2.66,-9.03 0.14,-1.13 0.21,-2.29 0.21,-3.46 0,-2.32 -0.14,-4.6 -0.4,-6.85 -0.48,-3.99 -1.37,-7.85 -2.62,-11.54 -1.49,-4.37 -3.48,-8.5 -5.93,-12.33 -2.83,-4.43 -6.26,-8.44 -10.17,-11.93 -4.37,-3.9 -9.35,-7.13 -14.77,-9.54 -5.76,-2.56 -12.02,-4.2 -18.59,-4.72 -1.52,-0.12 -3.05,-0.18 -4.59,-0.18 -5.54,0 -10.98,0.39 -16.31,1.16 -8,1.14 -15.72,3.12 -23.09,5.83 -8.64,3.17 -16.78,7.36 -24.3,12.42 -8.63,5.82 -16.43,12.78 -23.17,20.68 -7.5,8.78 -13.68,18.71 -18.26,29.49 -4.85,11.41 -7.89,23.78 -8.77,36.73 -0.18,2.6 -0.27,5.22 -0.27,7.86 0,11.32 0.82,22.44 2.41,33.31 2.3,15.74 6.21,30.96 11.55,45.48 6.27,17.04 14.51,33.13 24.44,47.99 11.45,17.12 25.16,32.6 40.69,46.02 17.34,14.99 36.95,27.41 58.25,36.67 22.64,9.85 47.19,16.13 72.94,18.14 5.95,0.47 11.97,0.7 18.04,0.7 21.73,0 43.1,-1.52 64.02,-4.45 31.46,-4.42 61.89,-12.03 90.95,-22.52 34.19,-12.33 66.48,-28.63 96.33,-48.34 34.46,-22.76 65.66,-50.06 92.74,-81.05 30.26,-34.64 55.37,-73.89 74.15,-116.56 19.97,-45.39 32.77,-94.64 36.96,-146.33 1,-12.33 1.51,-24.81 1.51,-37.4 0,-43.22 -3,-85.74 -8.81,-127.35 -8.81,-63.17 -24.09,-124.26 -45.13,-182.6 -24.75,-68.61 -57.48,-133.4 -97.08,-193.26 -45.69,-69.07 -100.52,-131.57 -162.76,-185.78 -69.5,-60.53 -148.25,-110.71 -233.85,-148.15 -90.96,-39.79 -189.65,-65.18 -293.19,-73.31 -23.91,-1.88 -48.09,-2.83 -72.48,-2.83 -87.34,0 -173.25,6.13 -257.32,17.98 -126.35,17.81 -248.55,48.56 -365.21,90.85 -137.11,49.7 -266.58,115.35 -386.17,194.71 -137.93,91.53 -262.7,201.29 -370.89,325.85 -120.76,139.04 -220.85,296.51 -295.49,467.64 -79.3,181.81 -129.86,379.03 -145.96,585.93 -3.69,47.4 -5.57,95.3 -5.57,143.64 0,174.92 12.29,346.96 36.06,515.32 35.64,252.46 97.09,496.62 181.59,729.73 99.32,274 230.48,532.73 389.01,771.73 182.88,275.7 402.18,525.14 651.04,741.46 277.86,241.52 592.56,441.75 934.56,591.13 -363.44,158.75 -757.71,260.08 -1171.33,292.51 -341.99,-234.9 -632.77,-519.79 -868.14,-838.99 -221.49,-300.37 -393.92,-631.12 -513.79,-979.21 -107.36,-311.77 -172.57,-637.44 -193.09,-967.65 -17.79,-286.25 -2.02,-575.9 48.97,-862.84 43.38,-244.13 112.24,-486.31 207.6,-722.76 63.59,-157.69 138.97,-312.83 226.43,-464.31 24.17,-41.87 49.75,-82.41 76.64,-121.61 117.38,-171.13 259.79,-316.64 419.36,-434.45 150.2,-110.88 315.62,-197.21 489.73,-257.24 155.97,-53.78 318.91,-86.45 484.12,-96.75 143.24,-8.93 288.19,-1.06 431.78,24.46 122.18,21.71 243.38,56.19 361.71,103.93 78.73,31.77 156.2,69.41 231.83,113.08 21.13,12.2 41.58,25.11 61.36,38.7 85.61,58.81 158.37,130.15 217.25,210.09 55.41,75.22 98.51,158.05 128.44,245.23 26.8,78.06 43.03,159.61 48.07,242.27 4.36,71.64 0.31,144.12 -12.56,215.91 -10.94,61.04 -28.26,121.59 -52.21,180.7 -15.78,38.95 -34.44,77.27 -56.05,114.7 -6.3,10.9 -12.98,21.45 -20.01,31.64 -29.47,42.67 -65.18,78.93 -105.17,108.25 -37.59,27.56 -78.97,49 -122.5,63.87 -38.94,13.31 -79.61,21.35 -120.84,23.83 -35.7,2.14 -71.82,0.11 -107.59,-6.3 -30.41,-5.45 -60.57,-14.07 -90.03,-25.97 -19.58,-7.92 -38.85,-17.3 -57.67,-28.16 -5.26,-3.04 -10.35,-6.25 -15.27,-9.63 -21.29,-14.61 -39.41,-32.33 -54.1,-52.18 -13.82,-18.68 -24.59,-39.24 -32.12,-60.88 -6.74,-19.39 -10.87,-39.66 -12.23,-60.21 -1.17,-17.84 -0.27,-35.89 2.83,-53.78 2.64,-15.25 6.86,-30.38 12.74,-45.16 4.06,-10.21 8.91,-20.26 14.57,-30.06 1.32,-2.29 2.71,-4.51 4.16,-6.68 7.24,-10.78 16.06,-19.96 25.96,-27.42 9.35,-7.05 19.68,-12.55 30.56,-16.41 9.78,-3.47 20.02,-5.6 30.4,-6.32 9.04,-0.63 18.19,-0.18 27.25,1.39 7.74,1.34 15.42,3.49 22.91,6.5 4.99,2 9.91,4.38 14.71,7.15 1.34,0.77 2.63,1.59 3.89,2.45 5.43,3.74 10.04,8.29 13.74,13.39 3.49,4.8 6.18,10.09 8.02,15.64 1.65,4.97 2.61,10.16 2.85,15.41 0.21,4.53 -0.13,9.11 -1.03,13.64 -0.76,3.82 -1.92,7.61 -3.5,11.3 -0.89,2.08 -1.91,4.13 -3.07,6.13 -0.58,1.01 -1.22,1.98 -1.91,2.89 -1.94,2.58 -4.25,4.75 -6.82,6.49 -2.38,1.61 -4.98,2.84 -7.7,3.66 -2.39,0.73 -4.88,1.14 -7.4,1.22 -2.15,0.07 -4.31,-0.1 -6.45,-0.53 -1.8,-0.36 -3.58,-0.89 -5.32,-1.61 -1.15,-0.48 -2.28,-1.03 -3.39,-1.67 -0.31,-0.18 -0.61,-0.37 -0.9,-0.56 -1.25,-0.85 -2.33,-1.87 -3.22,-3.01 -0.84,-1.07 -1.51,-2.25 -2,-3.49 -0.45,-1.12 -0.75,-2.3 -0.91,-3.5zm10.42 6.01c-0.98,-0.41 -1.93,-0.94 -2.8,-1.57 0.94,-0.09 1.88,-0.28 2.8,-0.57 0.92,0.29 1.86,0.48 2.8,0.57 1.08,0.11 2.15,0.09 3.21,-0.05 1.2,-0.15 2.38,-0.46 3.5,-0.9 1.24,-0.5 2.42,-1.17 3.49,-2 1.14,-0.89 2.16,-1.97 3.01,-3.21 0.2,-0.29 0.39,-0.59 0.57,-0.9 0.64,-1.11 1.19,-2.24 1.67,-3.39 0.72,-1.74 1.26,-3.53 1.61,-5.32 0.43,-2.14 0.6,-4.3 0.53,-6.45 -0.08,-2.52 -0.49,-5 -1.22,-7.4 -0.82,-2.72 -2.05,-5.32 -3.66,-7.69 -1.73,-2.57 -3.91,-4.88 -6.49,-6.82 -0.91,-0.68 -1.88,-1.32 -2.89,-1.91 -2.01,-1.16 -4.05,-2.18 -6.13,-3.07 -3.69,-1.58 -7.48,-2.74 -11.3,-3.5 -4.53,-0.9 -9.11,-1.23 -13.64,-1.03 -5.25,0.24 -10.44,1.2 -15.41,2.84 -5.56,1.84 -10.85,4.53 -15.65,8.02 -5.1,3.71 -9.65,8.31 -13.39,13.74 -0.86,1.25 -1.68,2.55 -2.46,3.89 -2.77,4.8 -5.15,9.71 -7.15,14.71 -3.01,7.5 -5.16,15.17 -6.5,22.91 -1.57,9.07 -2.01,18.22 -1.39,27.25 0.72,10.39 2.85,20.62 6.32,30.4 3.85,10.88 9.36,21.2 16.41,30.56 7.46,9.9 16.65,18.72 27.43,25.96 2.16,1.45 4.39,2.84 6.68,4.16 9.8,5.66 19.84,10.51 30.05,14.57 14.78,5.88 29.92,10.1 45.16,12.74 17.89,3.09 35.95,4 53.78,2.83 20.55,-1.36 40.81,-5.48 60.2,-12.22 21.65,-7.52 42.21,-18.3 60.88,-32.12 19.85,-14.68 37.56,-32.8 52.18,-54.09 3.38,-4.92 6.59,-10.01 9.63,-15.27 10.86,-18.82 20.23,-38.09 28.15,-57.67 11.91,-29.45 20.52,-59.62 25.98,-90.03 6.41,-35.77 8.45,-71.89 6.3,-107.59 -2.48,-41.22 -10.52,-81.89 -23.83,-120.84 -14.87,-43.52 -36.31,-84.9 -63.87,-122.5 -29.32,-39.99 -65.58,-75.7 -108.25,-105.17 -10.18,-7.03 -20.73,-13.71 -31.64,-20.01 -37.43,-21.61 -75.75,-40.27 -114.69,-56.05 -59.11,-23.95 -119.66,-41.27 -180.7,-52.22 -71.79,-12.87 -144.27,-16.92 -215.91,-12.56 -82.67,5.03 -164.21,21.27 -242.27,48.07 -87.17,29.93 -170,73.03 -245.23,128.44 -79.93,58.88 -151.28,131.65 -210.09,217.25 -13.58,19.77 -26.5,40.23 -38.69,61.35 -43.67,75.64 -81.32,153.1 -113.09,231.84 -47.75,118.33 -82.22,239.53 -103.93,361.71 -25.51,143.59 -33.39,288.54 -24.46,431.78 10.3,165.21 42.97,328.15 96.75,484.13 60.03,174.1 146.36,339.52 257.24,489.72 117.81,159.58 263.32,301.98 434.45,419.36 39.2,26.89 79.75,52.47 121.61,76.64 151.48,87.46 306.63,162.84 464.31,226.43 236.45,95.36 478.63,164.23 722.76,207.6 286.94,50.99 576.6,66.76 862.85,48.97 330.2,-20.53 655.88,-85.73 967.65,-193.09 348.09,-119.87 678.84,-292.3 979.21,-513.79 -44.24,394.12 -153.62,786.23 -332.34,1160.66 -374.43,178.72 -766.53,288.1 -1160.66,332.34 -370.87,41.63 -743.53,25.58 -1104.92,-44.66 -323.68,-62.9 -638.33,-169.28 -934.56,-316.6 -256.8,-127.71 -499.75,-286.2 -722.76,-473.83 -189.74,-159.64 -365.03,-340.36 -522.13,-541.17 -104.77,-133.92 -201.43,-276.76 -288.89,-428.25 -24.17,-41.87 -46.5,-84.29 -67,-127.18 -89.51,-187.22 -144.33,-383.3 -166.56,-580.4 -20.92,-185.52 -12.98,-371.94 22.09,-552.73 31.41,-161.96 84.59,-319.41 158.27,-467.64 63.88,-128.52 143.18,-250.11 237.07,-361.71 79.89,-94.96 170.35,-182.68 270.86,-261.28 66.88,-52.3 138.21,-100.56 213.85,-144.23 21.13,-12.2 42.54,-23.46 64.19,-33.79 93.74,-44.73 191.9,-72.08 290.57,-83.1 92.85,-10.37 186.14,-6.29 276.59,11.38 81.01,15.82 159.74,42.54 233.85,79.51 64.22,32.04 124.96,71.79 180.7,118.83 47.39,40 91.17,85.27 130.38,135.57 25.84,33.14 49.7,68.46 71.31,105.89 6.3,10.91 12.09,21.96 17.39,33.15 22.21,46.86 35.76,95.92 41.16,145.21 5.07,46.34 2.95,92.89 -5.94,138.02 -7.95,40.38 -21.32,79.62 -39.78,116.56 -15.99,31.99 -35.81,62.25 -59.25,90.02 -19.93,23.61 -42.47,45.43 -67.51,64.98 -16.65,13 -34.4,25 -53.22,35.86 -5.26,3.04 -10.58,5.84 -15.97,8.41 -23.3,11.13 -47.71,17.97 -72.24,20.76 -23.08,2.63 -46.28,1.68 -68.78,-2.63 -20.17,-3.86 -39.78,-10.42 -58.26,-19.52 -16.03,-7.9 -31.21,-17.71 -45.16,-29.34 -11.89,-9.91 -22.88,-21.13 -32.74,-33.61 -6.81,-8.62 -13.09,-17.85 -18.75,-27.64 -1.32,-2.29 -2.55,-4.61 -3.7,-6.94 -5.71,-11.66 -9.26,-23.89 -10.77,-36.2 -1.43,-11.62 -1.03,-23.32 1.07,-34.67 1.89,-10.21 5.16,-20.13 9.73,-29.49 3.98,-8.14 8.94,-15.84 14.83,-22.91 5.03,-6.03 10.73,-11.6 17.09,-16.59 4.23,-3.32 8.75,-6.39 13.55,-9.16 1.34,-0.77 2.7,-1.49 4.07,-2.14 5.95,-2.83 12.2,-4.55 18.47,-5.2 5.9,-0.63 11.83,-0.31 17.56,0.88 5.13,1.06 10.1,2.82 14.77,5.24 4.03,2.09 7.83,4.67 11.3,7.71 2.93,2.57 5.63,5.47 8.04,8.68 1.35,1.81 2.62,3.72 3.77,5.73 0.59,1.01 1.1,2.05 1.55,3.1 1.27,2.97 1.99,6.06 2.21,9.15 0.2,2.86 -0.03,5.73 -0.68,8.5 -0.57,2.44 -1.45,4.8 -2.64,7.02 -1.01,1.89 -2.25,3.68 -3.68,5.32 -1.21,1.38 -2.56,2.65 -4.06,3.8 -0.99,0.76 -2.04,1.46 -3.14,2.1 -0.31,0.18 -0.62,0.35 -0.94,0.5 -1.36,0.66 -2.78,1.08 -4.22,1.28 -1.35,0.19 -2.7,0.18 -4.03,-0.01 -1.2,-0.17 -2.37,-0.5 -3.48,-0.96zm10.42 -6.01c-0.85,0.64 -1.77,1.2 -2.76,1.64 0.39,-0.86 0.69,-1.77 0.91,-2.71 0.71,-0.65 1.34,-1.37 1.89,-2.14 0.63,-0.88 1.15,-1.82 1.57,-2.8 0.47,-1.11 0.79,-2.28 0.96,-3.48 0.19,-1.32 0.2,-2.68 0.01,-4.03 -0.2,-1.43 -0.62,-2.86 -1.28,-4.21 -0.15,-0.32 -0.32,-0.63 -0.5,-0.94 -0.64,-1.11 -1.34,-2.15 -2.1,-3.14 -1.15,-1.49 -2.42,-2.85 -3.8,-4.06 -1.64,-1.44 -3.43,-2.67 -5.32,-3.68 -2.22,-1.19 -4.58,-2.07 -7.02,-2.64 -2.76,-0.64 -5.63,-0.88 -8.5,-0.68 -3.09,0.22 -6.18,0.94 -9.15,2.21 -1.05,0.45 -2.09,0.96 -3.1,1.55 -2.01,1.16 -3.92,2.42 -5.73,3.77 -3.21,2.41 -6.11,5.11 -8.68,8.04 -3.04,3.47 -5.62,7.27 -7.71,11.3 -2.42,4.67 -4.18,9.64 -5.24,14.77 -1.19,5.74 -1.5,11.66 -0.88,17.56 0.66,6.27 2.37,12.51 5.2,18.46 0.65,1.37 1.37,2.73 2.14,4.07 2.77,4.8 5.83,9.32 9.16,13.55 4.99,6.35 10.56,12.06 16.59,17.08 7.07,5.89 14.77,10.85 22.91,14.83 9.35,4.57 19.28,7.84 29.49,9.73 11.35,2.1 23.04,2.49 34.67,1.07 12.31,-1.51 24.54,-5.05 36.2,-10.77 2.34,-1.15 4.65,-2.38 6.94,-3.7 9.8,-5.66 19.02,-11.93 27.64,-18.74 12.48,-9.86 23.71,-20.86 33.61,-32.74 11.63,-13.95 21.44,-29.13 29.34,-45.16 9.1,-18.48 15.66,-38.09 19.52,-58.25 4.31,-22.51 5.26,-45.7 2.63,-68.78 -2.79,-24.53 -9.62,-48.93 -20.76,-72.24 -2.57,-5.39 -5.38,-10.71 -8.41,-15.97 -10.86,-18.82 -22.87,-36.57 -35.87,-53.22 -19.55,-25.04 -41.37,-47.58 -64.97,-67.51 -27.78,-23.44 -58.04,-43.26 -90.02,-59.25 -36.94,-18.47 -76.18,-31.83 -116.56,-39.79 -45.13,-8.88 -91.68,-11.01 -138.02,-5.93 -49.29,5.4 -98.35,18.95 -145.2,41.16 -11.18,5.3 -22.24,11.1 -33.15,17.39 -37.43,21.61 -72.75,45.47 -105.89,71.31 -50.3,39.22 -95.57,82.99 -135.57,130.38 -47.04,55.74 -86.79,116.48 -118.83,180.7 -36.97,74.11 -63.69,152.84 -79.51,233.85 -17.66,90.46 -21.75,183.75 -11.38,276.59 11.02,98.67 38.37,196.83 83.1,290.57 10.33,21.65 21.59,43.06 33.79,64.19 43.67,75.64 91.93,146.97 144.23,213.85 78.6,100.51 166.32,190.97 261.28,270.86 111.6,93.89 233.19,173.19 361.71,237.07 148.23,73.68 305.68,126.86 467.64,158.27 180.79,35.06 367.22,43.01 552.73,22.08 197.1,-22.23 393.18,-77.05 580.4,-166.56 42.89,-20.5 85.32,-42.83 127.18,-67 151.48,-87.46 294.33,-184.13 428.25,-288.89 200.81,-157.1 381.54,-332.39 541.17,-522.13 187.63,-223.01 346.12,-465.97 473.83,-722.76 147.32,-296.23 253.7,-610.87 316.6,-934.55 70.23,-361.39 86.28,-734.05 44.65,-1104.92 319.2,235.38 604.09,526.15 838.99,868.14 -32.44,413.62 -133.76,807.89 -292.51,1171.33 -149.38,342 -349.61,656.7 -591.13,934.56 -216.32,248.87 -465.76,468.17 -741.46,651.05 -239,158.53 -497.73,289.7 -771.73,389.01 -233.12,84.5 -477.28,145.95 -729.73,181.59 -168.36,23.77 -340.4,36.06 -515.32,36.06 -48.34,0 -96.25,-1.88 -143.64,-5.57 -206.89,-16.09 -404.11,-66.66 -585.93,-145.96 -171.12,-74.64 -328.6,-174.73 -467.64,-295.49 -124.56,-108.19 -234.32,-232.96 -325.85,-370.89 -79.36,-119.58 -145.01,-249.05 -194.71,-386.17 -42.29,-116.66 -73.03,-238.86 -90.85,-365.21 -11.85,-84.07 -17.99,-169.98 -17.99,-257.31 0,-24.4 0.96,-48.57 2.83,-72.48 8.13,-103.54 33.53,-202.23 73.32,-293.19 37.44,-85.59 87.62,-164.34 148.15,-233.85 54.2,-62.24 116.71,-117.07 185.78,-162.76 59.86,-39.59 124.65,-72.33 193.26,-97.08 58.34,-21.04 119.43,-36.32 182.6,-45.13 41.62,-5.81 84.14,-8.81 127.35,-8.81 12.59,0 25.07,0.51 37.4,1.51 51.69,4.19 100.94,16.99 146.33,36.96 42.67,18.77 81.92,43.89 116.56,74.15 30.99,27.08 58.29,58.27 81.05,92.73 19.71,29.85 36,62.14 48.34,96.33 10.48,29.06 18.1,59.49 22.52,90.95 2.93,20.92 4.45,42.29 4.45,64.02 0,6.07 -0.24,12.08 -0.7,18.04 -2.01,25.75 -8.29,50.3 -18.14,72.94 -9.27,21.3 -21.68,40.92 -36.67,58.25 -13.43,15.53 -28.91,29.24 -46.03,40.69 -14.86,9.94 -30.95,18.18 -47.99,24.44 -14.52,5.34 -29.74,9.25 -45.48,11.55 -10.87,1.59 -22,2.41 -33.31,2.41 -2.64,0 -5.27,-0.09 -7.86,-0.27 -12.96,-0.88 -25.32,-3.92 -36.73,-8.77 -10.78,-4.58 -20.71,-10.77 -29.49,-18.26 -7.89,-6.74 -14.86,-14.53 -20.67,-23.17 -5.06,-7.51 -9.25,-15.66 -12.43,-24.29 -2.71,-7.37 -4.68,-15.1 -5.82,-23.09 -0.76,-5.33 -1.16,-10.78 -1.16,-16.31 -0,-1.54 0.06,-3.08 0.18,-4.59 0.52,-6.57 2.16,-12.84 4.72,-18.6 2.41,-5.42 5.64,-10.4 9.54,-14.77 3.48,-3.91 7.5,-7.34 11.92,-10.17 3.82,-2.44 7.96,-4.45 12.33,-5.93 3.69,-1.25 7.55,-2.14 11.54,-2.62 2.25,-0.27 4.53,-0.41 6.85,-0.4 1.17,0 2.33,0.07 3.46,0.21 3.2,0.39 6.24,1.3 9.03,2.66 2.58,1.26 4.95,2.89 7.02,4.83 1.83,1.71 3.43,3.66 4.76,5.8 1.13,1.82 2.07,3.79 2.77,5.85 0.59,1.74 1.02,3.55 1.26,5.42 0.16,1.24 0.25,2.49 0.25,3.77 0,0.36 -0.01,0.71 -0.04,1.06 -0.11,1.51 -0.45,2.95 -1,4.29 -0.51,1.26 -1.19,2.43 -2.02,3.48 -0.75,0.95 -1.62,1.8 -2.58,2.53z"/>
 </g>
</svg>
